<?xml version="1.0" encoding="utf-8"?>
<!-- Generator: Fusion 360, Shaper Origin Export Add-In, Version 1.6.3  -->
<svg xmlns="http://www.w3.org/2000/svg" xmlns:xlink="http://www.w3.org/1999/xlink" xmlns:shaper="http://www.shapertools.com/namespaces/shaper" shaper:fusionaddin="version:1.6.3" width="15.5cm" height="10cm" version="1.1" x="0cm" y="0cm" viewBox="0 0 15.5 10" enable-background="new 0 0 15.5 10" xml:space="preserve"><path d="M-14.5,6.5 L-14.5,6 -15,6 -15,4 -14.5,4 -14.5,0 -15,0 -15,-2 -14.5,-2 -14.5,-2.5 -14,-2.5 -14,-3 -11,-3 -11,-2.5 -8,-2.5 -8,-3 -6.5,-3 -6.5,-2.5 -3.5,-2.5 -3.5,-3 -0.5,-3 -0.5,-2.5 0,-2.5 0,-2 0.5,-2 0.5,0 0,0 0,4 0.5,4 0.5,6 0,6 0,6.5 -0.5,6.5 -0.5,7 -3.5,7 -3.5,6.5 -6.5000002,6.5 -6.5000002,6.9999998 -8.0000002,6.9999998 -8.0000002,6.5 -11.0000002,6.5 -11.0000002,6.9999998 -14.0053926,6.9999998 -14.0053926,6.5 -14.5,6.5z" transform="matrix(1,0,0,-1,15,7)" fill="rgb(0,0,0)" shaper:cutDepth="0.005" stroke-linecap="round" stroke-linejoin="round" /><path d="M-3,2 a1,1 0 1,1 2,0 a1,1 0 1,1 -2,0z" transform="matrix(1,0,0,-1,15,7)" fill="rgb(255,255,255)" stroke="rgb(0,0,0)" stroke-width="0.0010cm" stroke-linecap="round" stroke-linejoin="round" shaper:cutDepth="0.005" /></svg>