<?xml version="1.0" encoding="utf-8"?>
<!-- Generator: Fusion 360, Shaper Origin Export Add-In, Version 1.6.3  -->
<svg xmlns="http://www.w3.org/2000/svg" xmlns:xlink="http://www.w3.org/1999/xlink" xmlns:shaper="http://www.shapertools.com/namespaces/shaper" shaper:fusionaddin="version:1.6.3" width="42cm" height="27.0002827cm" version="1.1" x="0cm" y="0cm" viewBox="0 0 42 27.0002827" enable-background="new 0 0 42 27.0002827" xml:space="preserve"><path d="M42,0 L0,0 0,0 0,0.730807 0,0.9135087 0.0000002,1.0049517 0.0000844,1.0983129 0.0007189,1.2866387 0.0019956,1.4771225 0.0039394,1.6697883 0.0065752,1.8646603 0.0099279,2.0617627 0.0140223,2.2611195 0.0163555,2.3616509 0.0188833,2.4627549 0.0216091,2.5644346 0.0245355,2.6666932 0.0276608,2.7695389 0.0309912,2.8729735 0.0345366,2.976996 0.0383066,3.0816054 0.042311,3.1868009 0.0465594,3.2925815 0.0510616,3.3989462 0.0558273,3.505894 0.0608661,3.6134241 0.0661879,3.7215355 0.0718022,3.8302271 0.0777188,3.9394982 0.0839474,4.0493477 0.0904978,4.1597746 0.0973796,4.2707781 0.1046025,4.3823571 0.1121762,4.4945108 0.1201105,4.6072381 0.1284151,4.7205381 0.1370996,4.8344099 0.1461738,4.9488526 0.1556474,5.0638651 0.16553,5.1794465 0.1758315,5.2955959 0.1865614,5.4123123 0.1977296,5.5295948 0.2093457,5.6474424 0.2214194,5.7658541 0.2339604,5.8848291 0.2469785,6.0043664 0.2604833,6.1244649 0.2744853,6.2451241 0.289007,6.3663447 0.3040645,6.488122 0.3196702,6.6104495 0.3358361,6.7333209 0.3525746,6.8567296 0.3698978,6.9806692 0.3878178,7.1051332 0.4063469,7.2301152 0.4254974,7.3556087 0.4452813,7.4816073 0.4657109,7.6081046 0.4867983,7.735094 0.5085559,7.8625691 0.5309957,7.9905236 0.5541299,8.1189508 0.5779708,8.2478444 0.6025306,8.3771979 0.6278214,8.5070049 0.6538554,8.6372589 0.6806449,8.7679535 0.708202,8.8990821 0.736539,9.0306384 0.7656679,9.162616 0.7956011,9.2950082 0.8263508,9.4278088 0.857929,9.5610112 0.890348,9.694609 0.9236201,9.8285958 0.9577573,9.9629651 0.992772,10.0977103 1.0286762,10.2328252 1.0654822,10.3683032 1.1032022,10.5041379 1.1418484,10.6403228 1.1814329,10.7768515 1.2219681,10.9137176 1.263467,11.0509142 1.3059506,11.1884297 1.3494284,11.3262512 1.3939067,11.4643659 1.4393918,11.6027612 1.4858902,11.7414244 1.5334082,11.8803428 1.581952,12.0195039 1.6315281,12.1588948 1.6821427,12.298503 1.7338023,12.4383159 1.7865132,12.5783206 1.8402817,12.7185047 1.8951141,12.8588553 1.9510169,12.99936 2.0079963,13.1400059 2.0660587,13.2807804 2.1252105,13.421671 2.185458,13.5626648 2.2468075,13.7037493 2.3092653,13.8449118 2.3728379,13.9861397 2.4375316,14.1274201 2.5033527,14.2687406 2.5703075,14.4100885 2.6384024,14.551451 2.7076438,14.6928156 2.778038,14.8341695 2.8495913,14.9755001 2.9223101,15.1167948 2.9962007,15.2580408 3.0712695,15.3992256 3.1475228,15.5403364 3.2249669,15.6813604 3.3036035,15.8222794 3.3834308,15.9630752 3.4644467,16.103731 3.5466494,16.24423 3.6300368,16.3845554 3.7146071,16.5246903 3.8003584,16.6646179 3.8872886,16.8043215 3.975396,16.9437842 4.0646785,17.0829892 4.1551342,17.2219197 4.2467613,17.3605589 4.3395577,17.4988899 4.4335216,17.6368959 4.528651,17.7745602 4.6249439,17.9118659 4.7223986,18.0487962 4.821013,18.1853343 4.9207852,18.3214634 5.0217133,18.4571666 5.1237954,18.5924272 5.2270295,18.7272283 5.3314137,18.8615532 5.4369461,18.9953849 5.5436247,19.1287068 5.6514477,19.2615019 5.760413,19.3937535 5.8705189,19.5254447 5.9817633,19.6565588 6.0941443,19.7870789 6.2076599,19.9169882 6.3223084,20.0462699 6.4380877,20.1749072 6.5549958,20.302883 6.6730282,20.4301738 6.7921766,20.5567593 6.9124329,20.6826222 7.033789,20.8077452 7.1562367,20.9321109 7.2797678,21.0557018 7.4043741,21.1785008 7.5300474,21.3004903 7.6567796,21.4216531 7.7845626,21.5419717 7.913388,21.6614289 8.0432478,21.7800072 8.1741338,21.8976893 8.3060378,22.0144579 8.4389516,22.1302956 8.5728671,22.245185 8.707776,22.3591087 8.8436702,22.4720495 8.9805416,22.5839899 9.118382,22.6949126 9.2571831,22.8048003 9.3969368,22.9136355 9.537635,23.0214009 9.6792694,23.1280792 9.8218319,23.233653 9.9653143,23.3381049 10.1097084,23.4414176 10.2550061,23.5435737 10.4011992,23.6445559 10.5482795,23.7443467 10.6962388,23.8429289 10.845069,23.9402851 10.9947619,24.0363979 11.1453092,24.13125 11.296703,24.224824 11.4489349,24.3171025 11.6019967,24.4080682 11.7558785,24.497699 11.9105659,24.585973 12.0660456,24.6728773 12.2223042,24.7583991 12.3793283,24.8425256 12.5371045,24.9252439 12.6956194,25.0065412 12.8548597,25.0864047 13.014812,25.1648216 13.1754629,25.241779 13.336799,25.3172641 13.4988069,25.3912641 13.6614732,25.4637662 13.8247846,25.5347576 13.9887277,25.6042253 14.1532891,25.6721566 14.3184554,25.7385387 14.4842132,25.8033588 14.6505492,25.8666039 14.8174499,25.9282614 14.984902,25.9883183 15.1528922,26.0467618 15.3214069,26.1035792 15.4904328,26.1587575 15.6599566,26.212284 15.8299649,26.2641459 16.0004443,26.3143303 16.1713813,26.3628243 16.3427627,26.4096152 16.514575,26.4546902 16.6868048,26.4980364 16.8594389,26.5396409 17.0324637,26.579491 17.2058659,26.6175739 17.3796317,26.6538765 17.5537398,26.6883856 17.7281715,26.7210974 17.9029098,26.7520098 18.0779378,26.7811208 18.2532386,26.8084284 18.4287953,26.8339307 18.6045911,26.8576257 18.7806091,26.8795112 18.9568323,26.8995855 19.133244,26.9178463 19.3098271,26.9342919 19.4865649,26.9489201 19.6634404,26.961729 19.8404367,26.9727166 20.017537,26.9818809 20.1947243,26.9892198 20.3719819,26.9947315 20.5492927,26.9984139 20.7266399,27.0002649 20.9040067,27.0002827 21.0813761,26.9984653 21.2587312,26.9948105 21.4360552,26.9893165 21.6133311,26.9819812 21.7905421,26.9728026 21.9676714,26.9617788 22.1447019,26.9489078 22.3216168,26.9341875 22.498398,26.9176171 22.6750211,26.8992054 22.8514699,26.8789636 23.0277291,26.8569019 23.203784,26.8330309 23.3796195,26.8073608 23.5552207,26.7799022 23.7305724,26.7506653 23.9056599,26.7196607 24.080468,26.6868987 24.2549818,26.6523898 24.4291864,26.6161442 24.6030666,26.5781725 24.7766077,26.5384851 24.9497945,26.4970923 25.1226121,26.4540046 25.2950455,26.4092323 25.4670797,26.3627859 25.6386998,26.3146758 25.8098907,26.2649123 25.9806375,26.213506 26.1509252,26.1604671 26.3207388,26.1058061 26.4900633,26.0495334 26.6588838,25.9916594 26.8271853,25.9321945 26.9949527,25.8711492 27.1621712,25.8085337 27.3288256,25.7443586 27.4949011,25.6786342 27.6603827,25.611371 27.8252539,25.5425835 27.9895002,25.4722933 28.1531108,25.4005172 28.3160754,25.327272 28.4783836,25.2525743 28.6400249,25.1764408 28.8009888,25.0988884 28.961265,25.0199336 29.1208429,24.9395932 29.2797122,24.857884 29.4378623,24.7748227 29.5952829,24.6904259 29.7519635,24.6047104 29.9078936,24.517693 30.0630629,24.4293903 30.2174608,24.339819 30.371077,24.2489959 30.5239009,24.1569377 30.6759221,24.0636611 30.8271303,23.9691828 30.9775149,23.8735196 31.1270655,23.7766881 31.2757717,23.6787051 31.423623,23.5795874 31.570609,23.4793515 31.7167192,23.3780143 31.8619432,23.2755925 32.0062706,23.1721027 32.1496908,23.0675618 32.2921936,22.9619864 32.4337683,22.8553932 32.5744046,22.7477989 32.714092,22.6392204 32.8528201,22.5296742 32.9905785,22.4191772 33.1273567,22.307746 33.2631442,22.1953973 33.3979302,22.082153 33.5317066,21.9680385 33.6644685,21.8530707 33.7962109,21.7372668 33.9269289,21.6206437 34.0566175,21.5032184 34.1852718,21.385008 34.3128868,21.2660294 34.4394576,21.1462997 34.5649792,21.0258358 34.6894467,20.9046547 34.8128551,20.7827735 34.9351995,20.6602092 35.0564749,20.5369787 35.1766764,20.4130991 35.295799,20.2885873 35.4138378,20.1634604 35.5307878,20.0377354 35.6466441,19.9114293 35.7614018,19.7845591 35.8750558,19.6571417 35.9876012,19.5291943 36.0990332,19.4007337 36.2093466,19.2717771 36.3185366,19.1423413 36.4265983,19.0124435 36.5335267,18.8821005 36.6393167,18.7513295 36.7439636,18.6201474 36.8474623,18.4885712 36.9498079,18.356618 37.0509954,18.2243047 37.1510199,18.0916483 37.2498764,17.9586658 37.34756,17.8253743 37.4440658,17.6917907 37.5393887,17.5579322 37.6335247,17.4238189 37.7264748,17.289466 37.8182414,17.154886 37.9088267,17.0200916 37.998233,16.8850955 38.0864627,16.7499102 38.1735179,16.6145485 38.259401,16.479023 38.3441143,16.3433462 38.4276601,16.2075309 38.5100406,16.0715897 38.5912581,15.9355351 38.671315,15.7993799 38.7502135,15.6631367 38.8279559,15.5268181 38.9045445,15.3904367 38.9799816,15.2540052 39.0542694,15.1175363 39.1274103,14.9810425 39.1994066,14.8445365 39.2702605,14.7080309 39.3399743,14.5715384 39.4085504,14.4350716 39.4759909,14.2986431 39.5422982,14.1622656 39.6074747,14.0259517 39.6715225,13.8897141 39.7344439,13.7535654 39.7962413,13.6175181 39.8569169,13.481585 39.9164731,13.3457788 39.9749121,13.2101119 40.0322376,13.0745971 40.0884602,12.9392437 40.1435902,12.8040582 40.1976376,12.6690467 40.2506125,12.5342154 40.302525,12.3995705 40.3533852,12.2651182 40.4032031,12.1308647 40.4519889,11.9968163 40.4997526,11.8629791 40.5465043,11.7293593 40.5922541,11.5959631 40.637012,11.4627967 40.6807882,11.3298664 40.7235928,11.1971784 40.7654358,11.0647387 40.8063272,10.9325537 40.8462773,10.8006295 40.885296,10.6689724 40.9233935,10.5375885 40.9605798,10.4064841 40.996865,10.2756653 41.0322592,10.1451384 41.0667725,10.0149095 41.100415,9.8849849 41.1331967,9.7553707 41.1651277,9.6260732 41.1962181,9.4970986 41.226478,9.368453 41.2559175,9.2401427 41.2845467,9.1121738 41.3123756,8.9845527 41.3394212,8.8572851 41.3657066,8.7303733 41.3912443,8.6038176 41.4160461,8.4776183 41.4401242,8.3517757 41.4634907,8.2262899 41.4861575,8.1011614 41.5081367,7.9763902 41.5294405,7.8519767 41.5500809,7.7279213 41.5700698,7.604224 41.5894195,7.4808852 41.6081418,7.3579052 41.626249,7.2352842 41.6437531,7.1130225 41.660666,6.9911203 41.6769999,6.869578 41.6927669,6.7483957 41.707979,6.6275737 41.7226482,6.5071124 41.7367866,6.3870119 41.7504063,6.2672726 41.7635193,6.1478947 41.7761377,6.0288784 41.7882736,5.9102241 41.8111458,5.6740023 41.8322326,5.4392314 41.8516303,5.2059134 41.8694355,4.9740506 41.8857446,4.7436451 41.900654,4.5146989 41.9142714,4.2872001 41.9266936,4.0611022 41.9379667,3.8363779 41.9481346,3.6130011 41.9572415,3.3909459 41.9653314,3.1701861 41.9724485,2.9506958 41.9786367,2.732449 41.9839402,2.5154197 41.9884031,2.2995818 41.9920694,2.0849093 41.9949832,1.8713762 41.9971886,1.6589566 41.9987297,1.4476242 41.9996505,1.2373533 41.9999952,1.0281176 42,0.8221578 42,-0z" transform="matrix(1,0,0,-1,-0,27.0002827)" fill="rgb(0,0,0)" shaper:cutDepth="0.008" stroke-linecap="round" stroke-linejoin="round" /><path d="M41,1 L1,1 1,1 1.000289,1.1763295 1.0011587,1.3546713 1.0026167,1.5350248 1.0046759,1.7173889 1.0073537,1.9017621 1.0106722,2.0881422 1.014658,2.2765266 1.0193418,2.466912 1.0247587,2.6592944 1.0309476,2.8536691 1.0379511,3.0500308 1.0458157,3.2483732 1.0545911,3.4486894 1.0643305,3.6509715 1.07509,3.8552108 1.0869289,4.0613976 1.0999093,4.2695212 1.1140957,4.47957 1.1295552,4.6915312 1.1463572,4.9053908 1.1645732,5.1211338 1.1742343,5.2297066 1.1842766,5.3387439 1.1947095,5.4482437 1.2055426,5.5582035 1.2167855,5.6686211 1.228448,5.7794938 1.2405398,5.8908191 1.2530709,6.0025944 1.2660513,6.1148169 1.2794909,6.2274838 1.2933999,6.3405921 1.3077885,6.4541388 1.3226668,6.5681207 1.3380452,6.6825347 1.3539338,6.7973775 1.3703431,6.9126456 1.3872834,7.0283355 1.4047652,7.1444436 1.4227988,7.2609662 1.4413947,7.3778994 1.4605634,7.4952393 1.4803154,7.612982 1.500661,7.7311233 1.5216108,7.8496588 1.5431752,7.9685843 1.5653648,8.0878954 1.5881899,8.2075874 1.611661,8.3276556 1.6357885,8.4480953 1.6605827,8.5689015 1.686054,8.6900693 1.7122127,8.8115934 1.739069,8.9334686 1.7666332,9.0556895 1.7949154,9.1782507 1.8239257,9.3011464 1.8536741,9.424371 1.8841707,9.5479185 1.9154252,9.671783 1.9474475,9.7959583 1.9802474,9.9204382 2.0138344,10.0452163 2.0482181,10.1702861 2.0834079,10.2956408 2.1194131,10.4212737 2.1562429,10.5471779 2.1939063,10.6733462 2.2324124,10.7997713 2.2717699,10.926446 2.3119875,11.0533626 2.3530736,11.1805136 2.3950367,11.3078909 2.4378849,11.4354867 2.4816262,11.5632927 2.5262685,11.6913007 2.5718195,11.8195021 2.6182867,11.9478883 2.6656773,12.0764505 2.7139985,12.2051797 2.7632571,12.3340668 2.8134598,12.4631023 2.8646131,12.5922769 2.9167233,12.7215807 2.9697963,12.851004 3.0238379,12.9805366 3.0788538,13.1101685 3.1348494,13.2398893 3.1918297,13.3696883 3.2497997,13.499555 3.3087641,13.6294784 3.3687274,13.7594476 3.4296938,13.8894512 3.4916674,14.0194782 3.554652,14.1495168 3.6186512,14.2795555 3.6836684,14.4095826 3.7497066,14.539586 3.8167689,14.6695537 3.884858,14.7994734 3.9539763,14.9293328 4.0241261,15.0591194 4.0953093,15.1888205 4.1675279,15.3184233 4.2407834,15.447915 4.3150771,15.5772824 4.3904102,15.7065124 4.4667836,15.8355917 4.544198,15.9645068 4.6226538,16.0932442 4.7021512,16.2217902 4.7826903,16.3501311 4.8642709,16.4782528 4.9468925,16.6061414 5.0305546,16.7337829 5.1152563,16.8611629 5.2009966,16.9882672 5.2877742,17.1150813 5.3755876,17.2415909 5.4644354,17.3677813 5.5543155,17.4936379 5.645226,17.619146 5.7371647,17.7442908 5.8301292,17.8690574 5.9241168,17.9934309 6.0191248,18.1173964 6.1151502,18.2409387 6.21219,18.3640429 6.3102407,18.4866938 6.4092989,18.6088762 6.509361,18.7305749 6.6104231,18.8517746 6.7124812,18.9724602 6.8155312,19.0926162 6.9195689,19.2122273 7.0245896,19.3312783 7.1305888,19.4497536 7.2375617,19.567638 7.3455033,19.6849161 7.4544086,19.8015724 7.5642724,19.9175916 7.6750891,20.0329583 7.7868533,20.147657 7.8995593,20.2616723 8.0132013,20.374989 8.1277732,20.4875916 8.2432689,20.5994647 8.3596823,20.7105931 8.4770067,20.8209614 8.5952358,20.9305543 8.7143628,21.0393567 8.8343808,21.1473532 8.9552831,21.2545287 9.0770624,21.360868 9.1997115,21.4663561 9.3232231,21.5709779 9.4475897,21.6747184 9.5728038,21.7775626 9.6988575,21.8794957 9.825743,21.9805027 9.9534523,22.0805691 10.0819774,22.1796799 10.2113101,22.2778207 10.3414419,22.3749768 10.4723644,22.4711337 10.6040692,22.5662772 10.7365474,22.6603928 10.8697903,22.7534663 11.0037891,22.8454837 11.1385347,22.9364308 11.274018,23.0262937 11.4102299,23.1150587 11.5471609,23.2027119 11.6848017,23.2892398 11.8231428,23.3746289 11.9621746,23.4588657 12.1018874,23.5419372 12.2422714,23.62383 12.3833166,23.7045312 12.5250133,23.784028 12.6673512,23.8623076 12.8103202,23.9393574 12.9539102,24.015165 13.0981108,24.0897181 13.2429115,24.1630045 13.3883021,24.2350123 13.5342718,24.3057296 13.6808102,24.3751447 13.8279064,24.4432462 13.9755497,24.5100227 14.1237293,24.575463 14.2724343,24.6395562 14.4216537,24.7022915 14.5713765,24.7636583 14.7215915,24.8236461 14.8722876,24.8822447 15.0234536,24.939444 15.1750781,24.9952343 15.3271498,25.0496058 15.4796574,25.1025493 15.6325893,25.1540553 15.785934,25.204115 15.9396799,25.2527196 16.0938155,25.2998604 16.248329,25.3455292 16.4032088,25.3897178 16.5584431,25.4324184 16.71402,25.4736233 16.8699277,25.5133251 17.0261544,25.5515167 17.182688,25.5881911 17.3395167,25.6233418 17.4966283,25.6569622 17.6540109,25.6890463 17.8116523,25.7195882 17.9695405,25.7485822 18.1276633,25.776023 18.2860086,25.8019056 18.444564,25.8262252 18.6033175,25.8489772 18.7622567,25.8701574 18.9213693,25.889762 19.0806432,25.9077872 19.2400658,25.9242298 19.399625,25.9390867 19.5593083,25.9523552 19.7191034,25.9640328 19.8789979,25.9741176 20.0389794,25.9826076 20.1990355,25.9895014 20.3591538,25.994798 20.5193218,25.9984964 20.6795271,26.0005962 20.8397573,26.0010974 21,26 21.1602427,25.9973047 21.3204729,25.9930123 21.4806782,25.9871242 21.6408462,25.9796419 21.8009645,25.9705672 21.9610206,25.9599026 22.1210021,25.9476506 22.2808966,25.933814 22.4406917,25.9183961 22.600375,25.9014006 22.7599342,25.8828311 22.9193568,25.8626919 23.0786307,25.8409875 23.2377433,25.8177227 23.3966825,25.7929024 23.555436,25.766532 23.7139914,25.7386173 23.8723367,25.709164 24.0304595,25.6781784 24.1883477,25.6456669 24.3459891,25.6116363 24.5033717,25.5760936 24.6604833,25.5390461 24.817312,25.5005012 24.9738456,25.4604667 25.1300723,25.4189506 25.28598,25.3759612 25.4415569,25.331507 25.5967912,25.2855966 25.751671,25.2382392 25.9061845,25.1894437 26.0603201,25.1392197 26.214066,25.0875767 26.3674107,25.0345246 26.5203426,24.9800734 26.6728502,24.9242335 26.8249219,24.8670151 26.9765464,24.8084291 27.1277124,24.7484862 27.2784085,24.6871974 27.4286235,24.624574 27.5783463,24.5606275 27.7275657,24.4953693 27.8762707,24.4288112 28.0244503,24.3609651 28.1720936,24.2918432 28.3191898,24.2214577 28.4657282,24.1498209 28.6116979,24.0769455 28.7570885,24.0028442 28.9018892,23.9275298 29.0460898,23.8510153 29.1896798,23.7733138 29.3326488,23.6944386 29.4749867,23.6144032 29.6166834,23.533221 29.7577286,23.4509056 29.8981126,23.3674709 30.0378254,23.2829306 30.1768572,23.1972989 30.3151983,23.1105897 30.4528391,23.0228173 30.5897701,22.9339959 30.725982,22.8441399 30.8614653,22.7532638 30.9962109,22.6613821 31.1302097,22.5685095 31.2634526,22.4746606 31.3959308,22.3798503 31.5276356,22.2840933 31.6585581,22.1874046 31.7886899,22.0897991 31.9180226,21.991292 32.0465477,21.8918981 32.174257,21.7916328 32.3011425,21.6905111 32.4271962,21.5885482 32.5524103,21.4857594 32.6767769,21.38216 32.8002885,21.2777652 32.9229376,21.1725904 33.0447169,21.066651 33.1656192,20.9599622 33.2856372,20.8525395 33.4047642,20.7443982 33.5229933,20.6355538 33.6403177,20.5260216 33.7567311,20.4158171 33.8722268,20.3049555 33.9867987,20.1934524 34.1004407,20.0813229 34.2131467,19.9685826 34.3249109,19.8552467 34.4357276,19.7413306 34.5455914,19.6268494 34.6544967,19.5118185 34.7624383,19.3962531 34.8694112,19.2801683 34.9754104,19.1635793 35.0804311,19.0465012 35.1844688,18.928949 35.2875188,18.8109376 35.3895769,18.6924821 35.490639,18.5735973 35.5907011,18.454298 35.6897593,18.3345989 35.78781,18.2145146 35.8848498,18.0940599 35.9808752,17.9732492 36.0758832,17.8520968 36.1698708,17.7306172 36.2628353,17.6088245 36.354774,17.4867329 36.4456845,17.3643564 36.5355646,17.241709 36.6244124,17.1188043 36.7122258,16.9956561 36.7990034,16.872278 36.8847437,16.7486834 36.9694454,16.6248856 37.0531075,16.5008977 37.1357291,16.3767328 37.2173097,16.2524037 37.2978488,16.1279231 37.3773462,16.0033037 37.455802,15.8785578 37.5332164,15.7536977 37.6095898,15.6287354 37.6849229,15.5036829 37.7592166,15.3785519 37.8324721,15.2533539 37.9046907,15.1281003 37.9758739,15.0028023 38.0460237,14.8774708 38.115142,14.7521167 38.1832311,14.6267506 38.2502934,14.5013829 38.3163316,14.3760239 38.3813488,14.2506836 38.445348,14.1253718 38.5083326,14.0000982 38.5703062,13.8748723 38.6312726,13.7497032 38.6912359,13.6246001 38.7502003,13.4995718 38.8081703,13.3746269 38.8651506,13.2497738 38.9211462,13.1250208 38.9761621,13.0003757 39.0302037,12.8758466 39.0832767,12.7514408 39.1353869,12.6271657 39.1865402,12.5030285 39.2367429,12.3790361 39.2860015,12.2551952 39.3343227,12.1315121 39.3817133,12.0079933 39.4281805,11.8846446 39.4737315,11.761472 39.5183738,11.6384809 39.5621151,11.5156769 39.6049633,11.3930651 39.6469264,11.2706504 39.6880125,11.1484379 39.7282301,11.0264319 39.7675876,10.9046371 39.8060937,10.7830576 39.8437571,10.6616975 39.8805869,10.5405607 39.9165921,10.4196509 39.9517819,10.2989718 39.9861656,10.1785266 40.0197526,10.0583187 40.0525525,9.938351 40.0845748,9.8186267 40.1158293,9.6991483 40.1463259,9.5799187 40.1760743,9.4609402 40.2050846,9.3422152 40.2333668,9.223746 40.260931,9.1055346 40.2877873,8.987583 40.313946,8.8698931 40.3394173,8.7524666 40.3642115,8.635305 40.388339,8.51841 40.4118101,8.4017828 40.4346352,8.2854246 40.4568248,8.1693368 40.4783892,8.0535202 40.499339,7.9379758 40.5196846,7.8227045 40.5394366,7.7077071 40.5586053,7.592984 40.5772012,7.4785359 40.5952348,7.3643633 40.6127166,7.2504665 40.6296569,7.1368457 40.6619548,6.910433 40.6922115,6.6851257 40.7205091,6.4609231 40.7469291,6.2378233 40.771552,6.0158233 40.7944574,5.7949192 40.8157234,5.5751061 40.8354268,5.3563782 40.8536428,5.1387292 40.8704448,4.922152 40.8859043,4.706639 40.9000907,4.4921822 40.9130711,4.2787733 40.92491,4.0664036 40.9356695,3.8550644 40.9454089,3.6447468 40.9541843,3.435442 40.9620489,3.2271414 40.9690524,3.0198364 40.9752413,2.8135189 40.9806582,2.6081811 40.985342,2.4038156 40.9893278,2.2004156 40.9926463,1.9979749 40.9953241,1.7964881 40.9973833,1.5959505 40.9988413,1.3963584 40.999711,1.1977088 41,1z M1.4014814,1.4 L40.598813,1.4 40.598813,1.4 40.5974054,1.5950646 40.5954629,1.791022 40.5929466,1.9878728 40.5898176,2.1856174 40.586037,2.3842561 40.581566,2.5837895 40.5763658,2.784218 40.5703973,2.9855419 40.5636219,3.1877618 40.5560005,3.390878 40.5474944,3.594891 40.5380646,3.7998013 40.5276723,4.0056092 40.5162786,4.2123152 40.5038447,4.4199197 40.4903216,4.6284376 40.4756301,4.8378999 40.4596949,5.0483086 40.4424416,5.2596645 40.4237955,5.4719685 40.4036819,5.6852215 40.3820262,5.8994245 40.3587537,6.1145783 40.3337899,6.3306839 40.3070601,6.5477421 40.2784896,6.7657539 40.2480039,6.9847201 40.2155282,7.2046416 40.180988,7.4255194 40.1443086,7.6473544 40.1251433,7.7586311 40.1054153,7.8701474 40.0851152,7.9819035 40.0642336,8.0938994 40.0427612,8.2061353 40.0206888,8.3186112 39.9980069,8.4313274 39.9747062,8.5442838 39.9507774,8.6574807 39.9262112,8.7709181 39.9009983,8.8845961 39.8751293,8.9985149 39.8485949,9.1126746 39.8213857,9.2270752 39.7934924,9.341717 39.7649014,9.4566009 39.7355947,9.571727 39.7055643,9.6870912 39.6748028,9.8026893 39.6433025,9.9185169 39.611056,10.0345699 39.5780558,10.150844 39.5442944,10.267335 39.5097641,10.3840386 39.4744575,10.5009506 39.4383671,10.6180667 39.4014854,10.7353827 39.3638047,10.8528943 39.3253177,10.9705974 39.2860167,11.0884876 39.2458943,11.2065608 39.2049429,11.3248126 39.163155,11.4432389 39.1205231,11.5618354 39.0770396,11.6805978 39.0326971,11.7995219 38.987488,11.9186035 38.9414048,12.0378384 38.89444,12.1572222 38.846586,12.2767507 38.7978353,12.3964198 38.7481804,12.516225 38.6976138,12.6361624 38.646128,12.7562274 38.5937153,12.876416 38.5403684,12.9967239 38.4860797,13.1171468 38.4308416,13.2376805 38.3746452,13.3583198 38.3174852,13.4790549 38.2593605,13.5998751 38.2002702,13.7207694 38.1402131,13.841727 38.0791883,13.9627372 38.0171948,14.083789 37.9542315,14.2048715 37.8902975,14.325974 37.8253918,14.4470857 37.7595132,14.5681955 37.6926609,14.6892928 37.6248338,14.8103666 37.5560308,14.9314062 37.4862511,15.0524006 37.4154935,15.173339 37.343757,15.2942106 37.2710407,15.4150046 37.1973435,15.53571 37.1226644,15.656316 37.0470024,15.7768119 36.9703566,15.8971867 36.8927257,16.0174296 36.814109,16.1375297 36.7345053,16.2574762 36.6539136,16.3772583 36.572333,16.4968652 36.4897624,16.6162858 36.4062007,16.7355095 36.3216471,16.8545254 36.2361004,16.9733226 36.1495597,17.0918903 36.062024,17.2102176 35.9734922,17.3282936 35.8839654,17.4461003 35.7934486,17.5636195 35.7019473,17.6808368 35.6094668,17.7977378 35.5160128,17.9143082 35.4215905,18.0305336 35.3262054,18.1463997 35.229863,18.261892 35.1325686,18.3769963 35.0343278,18.4916982 34.9351459,18.6059832 34.8350284,18.7198371 34.7339807,18.8332455 34.6320083,18.946194 34.5291166,19.0586682 34.425311,19.1706538 34.320597,19.2821364 34.21498,19.3931017 34.1084654,19.5035353 34.0010587,19.6134228 33.8927653,19.7227498 33.7835906,19.8315021 33.6735402,19.9396652 33.5626193,20.0472248 33.4508335,20.1541665 33.3381881,20.2604759 33.2246887,20.3661387 33.1103407,20.4711406 32.9951494,20.5754671 32.8791203,20.6791039 32.7622589,20.7820366 32.6445707,20.8842509 32.5260609,20.9857324 32.4067351,21.0864667 32.2865987,21.1864395 32.1656571,21.2856364 32.0439159,21.3840431 31.9213803,21.4816451 31.7980561,21.5784278 31.6739552,21.6743675 31.5490891,21.7694478 31.4234674,21.863656 31.2970998,21.9569799 31.1699958,22.0494069 31.0421652,22.1409246 30.9136174,22.2315205 30.7843622,22.3211822 30.6544093,22.4098972 30.5237681,22.4976531 30.3924483,22.5844373 30.2604597,22.6702376 30.1278118,22.7550414 29.9945141,22.8388362 29.8605765,22.9216096 29.7260084,23.0033492 29.5908196,23.0840424 29.4550196,23.163677 29.3186182,23.2422403 29.1816248,23.3197199 29.0440491,23.3961035 28.9059009,23.4713784 28.7671896,23.5455324 28.627925,23.6185528 28.4881166,23.6904274 28.3477741,23.7611435 28.2069071,23.8306889 28.0655253,23.8990509 27.9236382,23.9662172 27.7812556,24.0321753 27.638387,24.0969128 27.495042,24.1604171 27.3512304,24.222676 27.2069616,24.2836768 27.0622455,24.3434071 26.9170915,24.4018546 26.7715093,24.4590067 26.6255085,24.5148509 26.4791022,24.5693736 26.3323047,24.622565 26.185127,24.6744191 26.0375798,24.72493 25.8896741,24.7740917 25.7414209,24.8218983 25.5928308,24.8683438 25.443915,24.9134224 25.2946842,24.9571281 25.1451493,24.999455 24.9953212,25.040397 24.8452108,25.0799484 24.6948289,25.1181032 24.5441866,25.1548553 24.3932945,25.190199 24.2421638,25.2241281 24.0908051,25.256637 23.9392294,25.2877195 23.7874476,25.3173697 23.6354706,25.3455817 23.4833092,25.3723497 23.3309744,25.3976676 23.178477,25.4215294 23.0258279,25.4439294 22.873038,25.4648615 22.7201182,25.4843198 22.5670793,25.5022983 22.4139323,25.5187912 22.2606881,25.5337925 22.1073574,25.5472963 21.9539513,25.5592965 21.8004805,25.5697874 21.646956,25.5787629 21.4933887,25.5862171 21.3397892,25.5921446 21.1861682,25.5965472 21.0325366,25.5994278 20.878905,25.6007896 20.7252844,25.6006356 20.5716855,25.5989691 20.4181191,25.5957931 20.2645959,25.5911106 20.1111268,25.5849249 19.9577224,25.577239 19.8043938,25.568056 19.6511515,25.557379 19.4980064,25.5452111 19.3449692,25.5315554 19.1920509,25.5164151 19.039262,25.4997932 18.8866135,25.4816928 18.7341161,25.4621171 18.5817806,25.4410691 18.4296178,25.4185519 18.2776385,25.3945687 18.1258534,25.3691226 17.9742734,25.3422166 17.8229091,25.3138538 17.6717715,25.2840374 17.5208713,25.2527705 17.3702193,25.2200561 17.2198262,25.1858975 17.0697029,25.1502976 16.9198601,25.1132595 16.7703087,25.0747865 16.6210593,25.0348815 16.4721229,24.9935478 16.3235101,24.9507883 16.1752327,24.9066072 16.027305,24.8610149 15.8797374,24.8140222 15.7325398,24.76564 15.5857221,24.7158787 15.4392942,24.664749 15.293266,24.6122616 15.1476475,24.5584271 15.0024485,24.5032561 14.857679,24.4467593 14.7133488,24.3889474 14.5694679,24.3298308 14.4260462,24.2694204 14.2830935,24.2077266 14.1406199,24.1447603 13.9986351,24.0805319 13.8571491,24.0150522 13.7161718,23.9483318 13.5757132,23.8803812 13.435783,23.8112113 13.2963913,23.7408325 13.1575479,23.6692555 13.0192628,23.596491 12.8815458,23.5225497 12.7444069,23.447442 12.6078559,23.3711788 12.4719029,23.2937705 12.3365575,23.2152279 12.2018299,23.1355616 12.0677299,23.0547823 11.9342674,22.9729005 11.8014523,22.8899269 11.6692944,22.8058722 11.5378039,22.7207469 11.4069904,22.6345618 11.276864,22.5473274 11.1474345,22.4590544 11.0187119,22.3697535 10.8907068,22.2794365 10.7634332,22.1881249 10.6368988,22.0958348 10.5111099,22.0025804 10.3860726,21.908376 10.2617933,21.813236 10.1382783,21.7171745 10.0155338,21.6202059 9.8935661,21.5223444 9.7723815,21.4236043 9.6519862,21.3239999 9.5323866,21.2235454 9.4135888,21.1222552 9.2955993,21.0201435 9.1784241,20.9172245 9.0620697,20.8135126 8.9465423,20.7090221 8.8318482,20.6037672 8.7179935,20.4977621 8.6049847,20.3910213 8.492828,20.2835588 8.3815297,20.1753891 8.271096,20.0665264 8.1615331,19.956985 8.0528475,19.846779 7.9450453,19.735923 7.8381329,19.624431 7.7321164,19.5123174 7.6270022,19.3995964 7.5227966,19.2862824 7.4195058,19.1723895 7.3171361,19.0579322 7.2156938,18.9429246 7.1151851,18.827381 7.0156163,18.7113158 6.9169937,18.5947431 6.8193236,18.4776772 6.7226122,18.3601326 6.6268658,18.2421233 6.5320908,18.123667 6.4382905,18.0047845 6.3454653,17.8854892 6.2536154,17.7657939 6.1627411,17.6457119 6.0728429,17.5252561 5.9839208,17.4044395 5.8959754,17.2832752 5.8090068,17.1617761 5.7230154,17.0399554 5.6380015,16.9178261 5.5539654,16.7954011 5.4709073,16.6726936 5.3888277,16.5497164 5.3077267,16.4264828 5.2276047,16.3030057 5.148462,16.1792981 5.0702989,16.0553731 4.9931157,15.9312436 4.9169128,15.8069228 4.8416903,15.6824236 4.7674486,15.5577592 4.6941881,15.4329424 4.621909,15.3079864 4.5506116,15.1829041 4.4802962,15.0577087 4.4109632,14.932413 4.3426127,14.8070303 4.2752453,14.6815734 4.208861,14.5560555 4.1434603,14.4304895 4.0790435,14.3048885 4.0156108,14.1792655 3.9531625,14.0536335 3.8916983,13.9280064 3.8312128,13.8023974 3.7716995,13.6768149 3.7131517,13.551267 3.655563,13.4257619 3.5989266,13.3003077 3.5432362,13.1749125 3.488485,13.0495846 3.4346665,12.9243319 3.3817743,12.7991627 3.3298015,12.6740851 3.2787419,12.5491072 3.2285886,12.4242371 3.1793352,12.2994831 3.1309752,12.1748531 3.0835018,12.0503554 3.0369087,11.9259981 2.9911891,11.8017894 2.9463366,11.6777373 2.9023445,11.55385 2.8592064,11.4301356 2.8169155,11.3066023 2.7754654,11.1832582 2.7348495,11.0601114 2.6950612,10.9371701 2.6560939,10.8144425 2.6179411,10.6919365 2.5805962,10.5696604 2.5440527,10.4476224 2.5083039,10.3258305 2.4733433,10.2042928 2.4391643,10.0830176 2.4057604,9.962013 2.373125,9.841287 2.3412501,9.7208476 2.310117,9.6007001 2.2797141,9.4808478 2.250032,9.3612945 2.221061,9.2420438 2.1927917,9.1230993 2.1652146,9.0044645 2.1383201,8.8861431 2.1120987,8.7681388 2.0865409,8.6504551 2.0616372,8.5330957 2.037378,8.4160641 2.0137539,8.299364 1.9907553,8.182999 1.9683727,8.0669727 1.9465966,7.9512887 1.9254175,7.8359507 1.9048258,7.7209622 1.884812,7.6063269 1.8653667,7.4920484 1.8464802,7.3781303 1.8281431,7.2645762 1.8103459,7.1513898 1.793079,7.0385746 1.7763329,6.9261342 1.7600981,6.8140724 1.7443651,6.7023926 1.7291243,6.5910985 1.7143663,6.4801938 1.7000815,6.369682 1.6862604,6.2595667 1.6728935,6.1498516 1.6474842,5.9316364 1.6237774,5.7150653 1.6016969,5.5001671 1.5811667,5.2869708 1.5621105,5.0755053 1.5444404,4.8657895 1.5280615,4.6578154 1.5129244,4.4515935 1.4989823,4.2471356 1.4861884,4.0444536 1.474496,3.8435593 1.4638581,3.6444645 1.454228,3.447181 1.4455588,3.2517209 1.4378038,3.0580958 1.4309161,2.8663176 1.424849,2.6763982 1.4195555,2.4883495 1.414989,2.3021832 1.4111026,2.1179113 1.4078494,1.9355455 1.4051827,1.7550977 1.4030562,1.5765797 1.4014814,1.4z" transform="matrix(1,0,0,-1,-0,27.0002827)" fill="rgb(150,150,150)" fill-rule="nonzero" shaper:cutDepth="0.004" stroke-linecap="round" stroke-linejoin="round" /><path d="M19.6999997,19.2000003 a0.1,0.1 0 1,1 0.2,0 a0.1,0.1 0 1,1 -0.2,0z" transform="matrix(1,0,0,-1,-0,27.0002827)" fill="rgb(255,255,255)" stroke="rgb(0,0,0)" stroke-width="0.0010cm" stroke-linecap="round" stroke-linejoin="round" shaper:cutDepth="0.008" /><path d="M19.6999997,14.8000002 a0.1,0.1 0 1,1 0.2,0 a0.1,0.1 0 1,1 -0.2,0z" transform="matrix(1,0,0,-1,-0,27.0002827)" fill="rgb(255,255,255)" stroke="rgb(0,0,0)" stroke-width="0.0010cm" stroke-linecap="round" stroke-linejoin="round" shaper:cutDepth="0.008" /><path d="M22.0999997,19.2000003 a0.1,0.1 0 1,1 0.2,0 a0.1,0.1 0 1,1 -0.2,0z" transform="matrix(1,0,0,-1,-0,27.0002827)" fill="rgb(255,255,255)" stroke="rgb(0,0,0)" stroke-width="0.0010cm" stroke-linecap="round" stroke-linejoin="round" shaper:cutDepth="0.008" /><path d="M22.0999997,14.8000002 a0.1,0.1 0 1,1 0.2,0 a0.1,0.1 0 1,1 -0.2,0z" transform="matrix(1,0,0,-1,-0,27.0002827)" fill="rgb(255,255,255)" stroke="rgb(0,0,0)" stroke-width="0.0010cm" stroke-linecap="round" stroke-linejoin="round" shaper:cutDepth="0.008" /><path d="M20.7,12.5 a0.3,0.3 0 1,1 0.6,0 a0.3,0.3 0 1,1 -0.6,0z" transform="matrix(1,0,0,-1,-0,27.0002827)" fill="rgb(255,255,255)" stroke="rgb(0,0,0)" stroke-width="0.0010cm" stroke-linecap="round" stroke-linejoin="round" shaper:cutDepth="0.008" /><path d="M20.5,6.3601922 L20.5,6 21.5,6 21.5,6.378867 21.5,6.5 20.5,6.5 20.5,6.3601922z" transform="matrix(1,0,0,-1,-0,27.0002827)" fill="rgb(255,255,255)" stroke="rgb(0,0,0)" stroke-width="0.0010cm" stroke-linecap="round" stroke-linejoin="round" shaper:cutDepth="0.008" /><path d="M25,6.5 L24,6.5 24,6 25,6 25,6.5z" transform="matrix(1,0,0,-1,-0,27.0002827)" fill="rgb(255,255,255)" stroke="rgb(0,0,0)" stroke-width="0.0010cm" stroke-linecap="round" stroke-linejoin="round" shaper:cutDepth="0.008" /><path d="M17,6.5 L17,6 18,6 18,6.5 17,6.5z" transform="matrix(1,0,0,-1,-0,27.0002827)" fill="rgb(255,255,255)" stroke="rgb(0,0,0)" stroke-width="0.0010cm" stroke-linecap="round" stroke-linejoin="round" shaper:cutDepth="0.008" /><path d="M16,19 L16.5,19 16.5,20 16,20 16,19z" transform="matrix(1,0,0,-1,-0,27.0002827)" fill="rgb(255,255,255)" stroke="rgb(0,0,0)" stroke-width="0.0010cm" stroke-linecap="round" stroke-linejoin="round" shaper:cutDepth="0.008" /><path d="M17,20 a0.5,0.5 0 1,1 1,0 a0.5,0.5 0 1,1 -1,0z" transform="matrix(1,0,0,-1,-0,27.0002827)" fill="rgb(255,255,255)" stroke="rgb(0,0,0)" stroke-width="0.0010cm" stroke-linecap="round" stroke-linejoin="round" shaper:cutDepth="0.008" /><path d="M24,20 a0.5,0.5 0 1,1 1,0 a0.5,0.5 0 1,1 -1,0z" transform="matrix(1,0,0,-1,-0,27.0002827)" fill="rgb(255,255,255)" stroke="rgb(0,0,0)" stroke-width="0.0010cm" stroke-linecap="round" stroke-linejoin="round" shaper:cutDepth="0.008" /><path d="M24.75,2.2 a0.25,0.25 0 1,1 0.5,0 a0.25,0.25 0 1,1 -0.5,0z" transform="matrix(1,0,0,-1,-0,27.0002827)" fill="rgb(255,255,255)" stroke="rgb(0,0,0)" stroke-width="0.0010cm" stroke-linecap="round" stroke-linejoin="round" shaper:cutDepth="0.008" /><path d="M22.0749997,1.775 a0.15,0.15 0 1,1 0.3,0 a0.15,0.15 0 1,1 -0.3,0z" transform="matrix(1,0,0,-1,-0,27.0002827)" fill="rgb(255,255,255)" stroke="rgb(0,0,0)" stroke-width="0.0010cm" stroke-linecap="round" stroke-linejoin="round" shaper:cutDepth="0.008" /><path d="M19.6249997,1.775 a0.15,0.15 0 1,1 0.3,0 a0.15,0.15 0 1,1 -0.3,0z" transform="matrix(1,0,0,-1,-0,27.0002827)" fill="rgb(255,255,255)" stroke="rgb(0,0,0)" stroke-width="0.0010cm" stroke-linecap="round" stroke-linejoin="round" shaper:cutDepth="0.008" /><path d="M22.0749997,4.225 a0.15,0.15 0 1,1 0.3,0 a0.15,0.15 0 1,1 -0.3,0z" transform="matrix(1,0,0,-1,-0,27.0002827)" fill="rgb(255,255,255)" stroke="rgb(0,0,0)" stroke-width="0.0010cm" stroke-linecap="round" stroke-linejoin="round" shaper:cutDepth="0.008" /><path d="M19.6249997,4.225 a0.15,0.15 0 1,1 0.3,0 a0.15,0.15 0 1,1 -0.3,0z" transform="matrix(1,0,0,-1,-0,27.0002827)" fill="rgb(255,255,255)" stroke="rgb(0,0,0)" stroke-width="0.0010cm" stroke-linecap="round" stroke-linejoin="round" shaper:cutDepth="0.008" /><path d="M19.6,3 a1.4,1.4 0 1,1 2.8,0 a1.4,1.4 0 1,1 -2.8,0z" transform="matrix(1,0,0,-1,-0,27.0002827)" fill="rgb(255,255,255)" stroke="rgb(0,0,0)" stroke-width="0.0010cm" stroke-linecap="round" stroke-linejoin="round" shaper:cutDepth="0.008" /><path d="M18,21 L18,21.5 17,21.5 17,21 18,21z" transform="matrix(1,0,0,-1,-0,27.0002827)" fill="rgb(255,255,255)" stroke="rgb(0,0,0)" stroke-width="0.0010cm" stroke-linecap="round" stroke-linejoin="round" shaper:cutDepth="0.008" /><path d="M21.5,21 L21.5,21.5 20.5,21.5 20.5,21 21.5,21z" transform="matrix(1,0,0,-1,-0,27.0002827)" fill="rgb(255,255,255)" stroke="rgb(0,0,0)" stroke-width="0.0010cm" stroke-linecap="round" stroke-linejoin="round" shaper:cutDepth="0.008" /><path d="M25,21 L25,21.5 24,21.5 24,21 25,21z" transform="matrix(1,0,0,-1,-0,27.0002827)" fill="rgb(255,255,255)" stroke="rgb(0,0,0)" stroke-width="0.0010cm" stroke-linecap="round" stroke-linejoin="round" shaper:cutDepth="0.008" /><path d="M25.5,20 L25.5,19 26,19 26,20 25.5,20z" transform="matrix(1,0,0,-1,-0,27.0002827)" fill="rgb(255,255,255)" stroke="rgb(0,0,0)" stroke-width="0.0010cm" stroke-linecap="round" stroke-linejoin="round" shaper:cutDepth="0.008" /><path d="M26,8.4742637 L26,8.5 25.9321271,8.5 25.5,8.5 25.5,7.5 26,7.5 26,8.4742637z" transform="matrix(1,0,0,-1,-0,27.0002827)" fill="rgb(255,255,255)" stroke="rgb(0,0,0)" stroke-width="0.0010cm" stroke-linecap="round" stroke-linejoin="round" shaper:cutDepth="0.008" /><path d="M2.899795,2.0128033 A0.4,0.4 1.8342572 0,1 2.100205,1.9871967 A0.4,0.4 181.8342477 1,1 2.899795,2.0128033z" transform="matrix(1,0,0,-1,-0,27.0002827)" fill="rgb(255,255,255)" stroke="rgb(0,0,0)" stroke-width="0.0010cm" stroke-linecap="round" stroke-linejoin="round" shaper:cutDepth="0.008" /><path d="M16.3622916,7.5 L16.5,7.5 16.5,7.5931593 16.5,8.5 16,8.5 16,7.5 16.3622916,7.5z" transform="matrix(1,0,0,-1,-0,27.0002827)" fill="rgb(255,255,255)" stroke="rgb(0,0,0)" stroke-width="0.0010cm" stroke-linecap="round" stroke-linejoin="round" shaper:cutDepth="0.008" /><path d="M25.9829297,13 L26,13 26,14 25.6156115,14 25.5,14 25.5,13 25.9829297,13z" transform="matrix(1,0,0,-1,-0,27.0002827)" fill="rgb(255,255,255)" stroke="rgb(0,0,0)" stroke-width="0.0010cm" stroke-linecap="round" stroke-linejoin="round" shaper:cutDepth="0.008" /><path d="M16,13.2873414 L16,13 16.5,13 16.5,14 16.4208776,14 16,14 16,13.2873414z" transform="matrix(1,0,0,-1,-0,27.0002827)" fill="rgb(255,255,255)" stroke="rgb(0,0,0)" stroke-width="0.0010cm" stroke-linecap="round" stroke-linejoin="round" shaper:cutDepth="0.008" /><path d="M12.2499996,10.7500001 L12.2499996,12.7500002 A0.25,0.25 0 0,1 11.7499996,12.7500002 L11.7499996,10.7500001 A0.25,0.25 180 0,1 12.2499996,10.7500001z" transform="matrix(1,0,0,-1,-0,27.0002827)" fill="rgb(255,255,255)" stroke="rgb(0,0,0)" stroke-width="0.0010cm" stroke-linecap="round" stroke-linejoin="round" shaper:cutDepth="0.008" /><path d="M12.7499996,12.5000002 L12.7499996,11.0000001 A0.25,0.25 180 0,1 13.2499996,11.0000001 L13.2499996,12.5000002 A0.25,0.25 0 0,1 12.7499996,12.5000002z" transform="matrix(1,0,0,-1,-0,27.0002827)" fill="rgb(255,255,255)" stroke="rgb(0,0,0)" stroke-width="0.0010cm" stroke-linecap="round" stroke-linejoin="round" shaper:cutDepth="0.008" /><path d="M11.2500003,11.0003152 L11.2499996,12.5000002 A0.25,0.25 0 0,1 10.7499995,12.5000002 L10.7499995,11 A0.2500005,0.2500005 180 1,1 11.2500003,11.0003152z" transform="matrix(1,0,0,-1,-0,27.0002827)" fill="rgb(255,255,255)" stroke="rgb(0,0,0)" stroke-width="0.0010cm" stroke-linecap="round" stroke-linejoin="round" shaper:cutDepth="0.008" /><path d="M29.2500004,11.0000001 L29.2500004,12.5000002 A0.25,0.25 0 0,1 28.7500004,12.5000002 L28.7500004,11.0000001 A0.25,0.25 180 0,1 29.2500004,11.0000001z" transform="matrix(1,0,0,-1,-0,27.0002827)" fill="rgb(255,255,255)" stroke="rgb(0,0,0)" stroke-width="0.0010cm" stroke-linecap="round" stroke-linejoin="round" shaper:cutDepth="0.008" /><path d="M31.2499998,11 L31.2500005,12.5000002 A0.25,0.25 0 0,1 30.7500004,12.5000002 L30.7500004,10.9996848 A0.2499998,0.2499998 180.072235 0,1 31.2499998,11z" transform="matrix(1,0,0,-1,-0,27.0002827)" fill="rgb(255,255,255)" stroke="rgb(0,0,0)" stroke-width="0.0010cm" stroke-linecap="round" stroke-linejoin="round" shaper:cutDepth="0.008" /><path d="M29.7500004,12.7500002 L29.7500004,10.7500001 A0.25,0.25 180 0,1 30.2500004,10.7500001 L30.2500004,12.7500002 A0.25,0.25 0 0,1 29.7500004,12.7500002z" transform="matrix(1,0,0,-1,-0,27.0002827)" fill="rgb(255,255,255)" stroke="rgb(0,0,0)" stroke-width="0.0010cm" stroke-linecap="round" stroke-linejoin="round" shaper:cutDepth="0.008" /></svg>