<?xml version="1.0" encoding="utf-8"?>
<!-- Generator: Fusion 360, Shaper Origin Export Add-In, Version 1.6.3  -->
<svg xmlns="http://www.w3.org/2000/svg" xmlns:xlink="http://www.w3.org/1999/xlink" xmlns:shaper="http://www.shapertools.com/namespaces/shaper" shaper:fusionaddin="version:1.6.3" width="42cm" height="27.0002827cm" version="1.1" x="0cm" y="0cm" viewBox="0 0 42 27.0002827" enable-background="new 0 0 42 27.0002827" xml:space="preserve"><path d="M42,0 L0,0 0,0 -0,0.8221578 0.0000048,1.0281176 0.0003495,1.2373533 0.0012703,1.4476242 0.0028114,1.6589566 0.0050168,1.8713762 0.0079306,2.0849093 0.0115969,2.2995818 0.0160598,2.5154197 0.0213633,2.732449 0.0275515,2.9506958 0.0346686,3.1701861 0.0427585,3.3909459 0.0518654,3.6130011 0.0620333,3.8363779 0.0733064,4.0611022 0.0857286,4.2872001 0.099346,4.5146989 0.1142554,4.7436451 0.1305645,4.9740506 0.1483697,5.2059134 0.1677674,5.4392314 0.1888542,5.6740023 0.2117264,5.9102241 0.2238623,6.0288784 0.2364807,6.1478947 0.2495937,6.2672726 0.2632134,6.3870119 0.2773518,6.5071124 0.292021,6.6275737 0.3072331,6.7483957 0.3230001,6.869578 0.339334,6.9911203 0.3562469,7.1130225 0.373751,7.2352842 0.3918582,7.3579052 0.4105805,7.4808852 0.4299302,7.604224 0.4499191,7.7279213 0.4705595,7.8519767 0.4918633,7.9763902 0.5138425,8.1011614 0.5365093,8.2262899 0.5598758,8.3517757 0.5839539,8.4776183 0.6087557,8.6038176 0.6342934,8.7303733 0.6605788,8.8572851 0.6876244,8.9845527 0.7154533,9.1121738 0.7440825,9.2401427 0.773522,9.368453 0.8037819,9.4970986 0.8348723,9.6260732 0.8668033,9.7553707 0.899585,9.8849849 0.9332275,10.0149095 0.9677408,10.1451384 1.003135,10.2756653 1.0394202,10.4064841 1.0766065,10.5375885 1.114704,10.6689724 1.1537227,10.8006295 1.1936728,10.9325537 1.2345642,11.0647387 1.2764072,11.1971784 1.3192118,11.3298664 1.362988,11.4627967 1.4077459,11.5959631 1.4534957,11.7293593 1.5002474,11.8629791 1.5480111,11.9968163 1.5967969,12.1308647 1.6466148,12.2651182 1.697475,12.3995705 1.7493875,12.5342154 1.8023624,12.6690467 1.8564098,12.8040582 1.9115398,12.9392437 1.9677624,13.0745971 2.0250879,13.2101119 2.0835269,13.3457788 2.1430831,13.481585 2.2037587,13.6175181 2.2655561,13.7535654 2.3284775,13.8897141 2.3925253,14.0259517 2.4577018,14.1622656 2.5240091,14.2986431 2.5914496,14.4350716 2.6600257,14.5715384 2.7297395,14.7080309 2.8005934,14.8445365 2.8725897,14.9810425 2.9457306,15.1175363 3.0200184,15.2540052 3.0954555,15.3904367 3.1720441,15.5268181 3.2497865,15.6631367 3.328685,15.7993799 3.4087419,15.9355351 3.4899594,16.0715897 3.5723399,16.2075309 3.6558857,16.3433462 3.740599,16.479023 3.8264821,16.6145485 3.9135373,16.7499102 4.001767,16.8850955 4.0911733,17.0200916 4.1817586,17.154886 4.2735252,17.289466 4.3664753,17.4238189 4.4606113,17.5579322 4.5559342,17.6917907 4.65244,17.8253743 4.7501236,17.9586658 4.8489801,18.0916483 4.9490046,18.2243047 5.0501921,18.356618 5.1525377,18.4885712 5.2560364,18.6201474 5.3606833,18.7513295 5.4664733,18.8821005 5.5734017,19.0124435 5.6814634,19.1423413 5.7906534,19.2717771 5.9009668,19.4007337 6.0123988,19.5291943 6.1249442,19.6571417 6.2385982,19.7845591 6.3533559,19.9114293 6.4692122,20.0377354 6.5861622,20.1634604 6.704201,20.2885873 6.8233236,20.4130991 6.9435251,20.5369787 7.0648005,20.6602092 7.1871449,20.7827735 7.3105533,20.9046547 7.4350208,21.0258358 7.5605424,21.1462997 7.6871132,21.2660294 7.8147282,21.385008 7.9433825,21.5032184 8.0730711,21.6206437 8.2037891,21.7372668 8.3355315,21.8530707 8.4682934,21.9680385 8.6020698,22.082153 8.7368558,22.1953973 8.8726433,22.307746 9.0094215,22.4191772 9.1471799,22.5296742 9.285908,22.6392204 9.4255954,22.7477989 9.5662317,22.8553932 9.7078064,22.9619864 9.8503092,23.0675618 9.9937294,23.1721027 10.1380568,23.2755925 10.2832808,23.3780143 10.429391,23.4793515 10.576377,23.5795874 10.7242283,23.6787051 10.8729345,23.7766881 11.0224851,23.8735196 11.1728697,23.9691828 11.3240779,24.0636611 11.4760991,24.1569377 11.628923,24.2489959 11.7825392,24.339819 11.9369371,24.4293903 12.0921064,24.517693 12.2480365,24.6047104 12.4047171,24.6904259 12.5621377,24.7748227 12.7202878,24.857884 12.8791571,24.9395932 13.038735,25.0199336 13.1990112,25.0988884 13.3599751,25.1764408 13.5216164,25.2525743 13.6839246,25.327272 13.8468892,25.4005172 14.0104998,25.4722933 14.1747461,25.5425835 14.3396173,25.611371 14.5050989,25.6786342 14.6711744,25.7443586 14.8378288,25.8085337 15.0050473,25.8711492 15.1728147,25.9321945 15.3411162,25.9916594 15.5099367,26.0495334 15.6792612,26.1058061 15.8490748,26.1604671 16.0193625,26.213506 16.1901093,26.2649123 16.3613002,26.3146758 16.5329203,26.3627859 16.7049545,26.4092323 16.8773879,26.4540046 17.0502055,26.4970923 17.2233923,26.5384851 17.3969334,26.5781725 17.5708136,26.6161442 17.7450182,26.6523898 17.919532,26.6868987 18.0943401,26.7196607 18.2694276,26.7506653 18.4447793,26.7799022 18.6203805,26.8073608 18.796216,26.8330309 18.9722709,26.8569019 19.1485301,26.8789636 19.3249789,26.8992054 19.501602,26.9176171 19.6783832,26.9341875 19.8552981,26.9489078 20.0323286,26.9617788 20.2094579,26.9728026 20.3866689,26.9819812 20.5639448,26.9893165 20.7412688,26.9948105 20.9186239,26.9984653 21.0959933,27.0002827 21.2733601,27.0002649 21.4507073,26.9984139 21.6280181,26.9947315 21.8052757,26.9892198 21.982463,26.9818809 22.1595633,26.9727166 22.3365596,26.961729 22.5134351,26.9489201 22.6901729,26.9342919 22.866756,26.9178463 23.0431677,26.8995855 23.2193909,26.8795112 23.3954089,26.8576257 23.5712047,26.8339307 23.7467614,26.8084284 23.9220622,26.7811208 24.0970902,26.7520098 24.2718285,26.7210974 24.4462602,26.6883856 24.6203683,26.6538765 24.7941341,26.6175739 24.9675363,26.579491 25.1405611,26.5396409 25.3131952,26.4980364 25.485425,26.4546902 25.6572373,26.4096152 25.8286187,26.3628243 25.9995557,26.3143303 26.1700351,26.2641459 26.3400434,26.212284 26.5095672,26.1587575 26.6785931,26.1035792 26.8471078,26.0467618 27.015098,25.9883183 27.1825501,25.9282614 27.3494508,25.8666039 27.5157868,25.8033588 27.6815446,25.7385387 27.8467109,25.6721566 28.0112723,25.6042253 28.1752154,25.5347576 28.3385268,25.4637662 28.5011931,25.3912641 28.663201,25.3172641 28.8245371,25.241779 28.985188,25.1648216 29.1451403,25.0864047 29.3043806,25.0065412 29.4628955,24.9252439 29.6206717,24.8425256 29.7776958,24.7583991 29.9339544,24.6728773 30.0894341,24.585973 30.2441215,24.497699 30.3980033,24.4080682 30.5510651,24.3171025 30.703297,24.224824 30.8546908,24.13125 31.0052381,24.0363979 31.154931,23.9402851 31.3037612,23.8429289 31.4517205,23.7443467 31.5988008,23.6445559 31.7449939,23.5435737 31.8902916,23.4414176 32.0346857,23.3381049 32.1781681,23.233653 32.3207306,23.1280792 32.462365,23.0214009 32.6030632,22.9136355 32.7428169,22.8048003 32.881618,22.6949126 33.0194584,22.5839899 33.1563298,22.4720495 33.292224,22.3591087 33.4271329,22.245185 33.5610484,22.1302956 33.6939622,22.0144579 33.8258662,21.8976893 33.9567522,21.7800072 34.086612,21.6614289 34.2154374,21.5419717 34.3432204,21.4216531 34.4699526,21.3004903 34.5956259,21.1785008 34.7202322,21.0557018 34.8437633,20.9321109 34.966211,20.8077452 35.0875671,20.6826222 35.2078234,20.5567593 35.3269718,20.4301738 35.4450042,20.302883 35.5619123,20.1749072 35.6776916,20.0462699 35.7923401,19.9169882 35.9058557,19.7870789 36.0182367,19.6565588 36.1294811,19.5254447 36.239587,19.3937535 36.3485523,19.2615019 36.4563753,19.1287068 36.5630539,18.9953849 36.6685863,18.8615532 36.7729705,18.7272283 36.8762046,18.5924272 36.9782867,18.4571666 37.0792148,18.3214634 37.178987,18.1853343 37.2776014,18.0487962 37.3750561,17.9118659 37.471349,17.7745602 37.5664784,17.6368959 37.6604423,17.4988899 37.7532387,17.3605589 37.8448658,17.2219197 37.9353215,17.0829892 38.024604,16.9437842 38.1127114,16.8043215 38.1996416,16.6646179 38.2853929,16.5246903 38.3699632,16.3845554 38.4533506,16.24423 38.5355533,16.103731 38.6165692,15.9630752 38.6963965,15.8222794 38.7750331,15.6813604 38.8524772,15.5403364 38.9287305,15.3992256 39.0037993,15.2580408 39.0776899,15.1167948 39.1504087,14.9755001 39.221962,14.8341695 39.2923562,14.6928156 39.3615976,14.551451 39.4296925,14.4100885 39.4966473,14.2687406 39.5624684,14.1274201 39.6271621,13.9861397 39.6907347,13.8449118 39.7531925,13.7037493 39.814542,13.5626648 39.8747895,13.421671 39.9339413,13.2807804 39.9920037,13.1400059 40.0489831,12.99936 40.1048859,12.8588553 40.1597183,12.7185047 40.2134868,12.5783206 40.2661977,12.4383159 40.3178573,12.298503 40.3684719,12.1588948 40.418048,12.0195039 40.4665918,11.8803428 40.5141098,11.7414244 40.5606082,11.6027612 40.6060933,11.4643659 40.6505716,11.3262512 40.6940494,11.1884297 40.736533,11.0509142 40.7780319,10.9137176 40.8185671,10.7768515 40.8581516,10.6403228 40.8967978,10.5041379 40.9345178,10.3683032 40.9713238,10.2328252 41.007228,10.0977103 41.0422427,9.9629651 41.0763799,9.8285958 41.109652,9.694609 41.142071,9.5610112 41.1736492,9.4278088 41.2043989,9.2950082 41.2343321,9.162616 41.263461,9.0306384 41.291798,8.8990821 41.3193551,8.7679535 41.3461446,8.6372589 41.3721786,8.5070049 41.3974694,8.3771979 41.4220292,8.2478444 41.4458701,8.1189508 41.4690043,7.9905236 41.4914441,7.8625691 41.5132017,7.735094 41.5342891,7.6081046 41.5547187,7.4816073 41.5745026,7.3556087 41.5936531,7.2301152 41.6121822,7.1051332 41.6301022,6.9806692 41.6474254,6.8567296 41.6641639,6.7333209 41.6803298,6.6104495 41.6959355,6.488122 41.710993,6.3663447 41.7255147,6.2451241 41.7395167,6.1244649 41.7530215,6.0043664 41.7660396,5.8848291 41.7785806,5.7658541 41.7906543,5.6474424 41.8022704,5.5295948 41.8134386,5.4123123 41.8241685,5.2955959 41.83447,5.1794465 41.8443526,5.0638651 41.8538262,4.9488526 41.8629004,4.8344099 41.8715849,4.7205381 41.8798895,4.6072381 41.8878238,4.4945108 41.8953975,4.3823571 41.9026204,4.2707781 41.9095022,4.1597746 41.9160526,4.0493477 41.9222812,3.9394982 41.9281978,3.8302271 41.9338121,3.7215355 41.9391339,3.6134241 41.9441727,3.505894 41.9489384,3.3989462 41.9534406,3.2925815 41.957689,3.1868009 41.9616934,3.0816054 41.9654634,2.976996 41.9690088,2.8729735 41.9723392,2.7695389 41.9754645,2.6666932 41.9783909,2.5644346 41.9811167,2.4627549 41.9836445,2.3616509 41.9859777,2.2611195 41.9900721,2.0617627 41.9934248,1.8646603 41.9960606,1.6697883 41.9980044,1.4771225 41.9992811,1.2866387 41.9999156,1.0983129 41.9999998,1.0049517 42,0.9135087 42,0.730807 42,0z" transform="matrix(1,0,0,-1,0,27.0002827)" fill="rgb(0,0,0)" shaper:cutDepth="0.008" stroke-linecap="round" stroke-linejoin="round" /><path d="M25.5,7.5931593 L25.5,7.5931593 25.3727121,7.6811293 25.2464886,7.7700459 25.121371,7.8597557 24.9974007,7.9501057 24.874619,8.0409427 24.7530674,8.1321134 24.6327872,8.2234648 24.5138199,8.3148436 24.396205,8.4060958 24.2799332,8.4970688 24.1649511,8.5876389 24.0512048,8.6776873 23.9386406,8.7670955 23.8272046,8.8557446 23.716843,8.9435162 23.607502,9.0302914 23.4991276,9.1159517 23.3916661,9.2003783 23.2850637,9.2834526 23.1792665,9.365056 23.0742206,9.4450698 22.9698723,9.5233752 22.8661677,9.5998537 22.7630443,9.674389 22.6603191,9.7469026 22.5578764,9.8173061 22.4556382,9.8855015 22.3535264,9.9513908 22.3024936,9.98344 22.2514631,10.0148759 22.2004252,10.0456863 22.1493701,10.0758589 22.0982881,10.1053814 22.0471695,10.1342417 21.9960045,10.1624275 21.9447833,10.1899264 21.8934961,10.2167263 21.8421333,10.2428149 21.7906851,10.26818 21.7391417,10.2928093 21.6874933,10.3166906 21.6357303,10.3398115 21.5838428,10.36216 21.5318212,10.3837236 21.4796555,10.4044902 21.4273362,10.4244475 21.3748535,10.4435832 21.3221975,10.4618852 21.2693586,10.4793411 21.2163269,10.4959387 21.1630931,10.5116655 21.1096747,10.5264871 21.0560877,10.5403895 21.0023347,10.5533766 20.9484181,10.5654519 20.8943405,10.5766192 20.8401043,10.5868822 20.7857121,10.5962446 20.7311663,10.60471 20.6764694,10.6122822 20.6216239,10.6189648 20.5666324,10.6247617 20.5114972,10.6296763 20.456221,10.6337126 20.4008061,10.6368741 20.3452552,10.6391645 20.2895706,10.6405876 20.2337549,10.6411471 20.1778106,10.6408466 20.1217402,10.6396898 20.0655461,10.6376805 20.0092309,10.6348223 19.952797,10.631119 19.896247,10.6265742 19.8395834,10.6211916 19.7828059,10.6149834 19.7259034,10.6079893 19.6688697,10.6002262 19.6116989,10.5917081 19.5543857,10.5824488 19.4969243,10.5724624 19.4393091,10.5617628 19.3815346,10.5503639 19.3235952,10.5382797 19.2654851,10.5255242 19.207199,10.5121114 19.148731,10.4980551 19.0900757,10.4833693 19.0312275,10.4680681 18.9721806,10.4521653 18.9129296,10.4356749 18.8534688,10.4186109 18.7338955,10.3828177 18.6134159,10.3448975 18.4919851,10.3049619 18.3695583,10.2631225 18.2460908,10.219491 18.1215376,10.1741791 17.995854,10.1272984 17.8689951,10.0789605 17.7409161,10.0292771 17.6115723,9.9783598 17.4809187,9.9263204 17.3489071,9.8732747 17.2155154,9.8193462 17.0807549,9.7646506 16.9446378,9.7093037 16.8071764,9.653421 16.6683828,9.5971182 16.5282692,9.5405108 16.3868478,9.4837145 16.2441308,9.4268448 16.1001304,9.3700175 15.9548587,9.3133481 15.808328,9.2569522 15.6605505,9.2009455 15.5115382,9.1454435 15.3613035,9.0905618 15.2098585,9.0364162 15.0572154,8.9831221 14.9033918,8.9308049 14.7484439,8.8795972 14.5924417,8.8295868 14.4354548,8.7808582 14.2775529,8.7334961 14.1188056,8.6875852 13.9592824,8.64321 13.7990531,8.6004553 13.6381873,8.5594057 13.4767545,8.5201458 13.3148245,8.4827602 13.1524668,8.4473337 12.9897511,8.4139508 12.8267471,8.3826962 12.6635242,8.3536546 12.5001523,8.3269105 12.4184321,8.3144266 12.3367033,8.3025483 12.2549828,8.2912812 12.1732859,8.2806276 12.091628,8.2705902 12.0100245,8.2611714 11.9284908,8.2523738 11.8470422,8.2442 11.7656941,8.2366524 11.6844619,8.2297335 11.6033609,8.223446 11.5224066,8.2177923 11.4416142,8.212775 11.3609993,8.2083966 11.280577,8.2046597 11.2003628,8.2015667 11.1203721,8.1991202 11.0406203,8.1973227 10.9611226,8.1961767 10.8818946,8.1956849 10.8029515,8.1958496 10.7243087,8.1966735 10.6459817,8.1981591 10.5679857,8.2003089 10.4903361,8.2031254 10.4130484,8.2066112 10.3361378,8.2107688 10.2596198,8.2156007 10.1835097,8.2211094 10.1078229,8.2272975 10.0325748,8.2341676 9.9577807,8.2417221 9.8834581,8.2499639 9.8096358,8.2588945 9.7363329,8.2685086 9.6635661,8.2788 9.5913522,8.2897625 9.519708,8.30139 9.4486503,8.3136763 9.3781958,8.3266153 9.3083614,8.340201 9.2391637,8.354427 9.1706197,8.3692873 9.1027461,8.3847757 9.0355596,8.4008861 8.9690771,8.4176123 8.9033153,8.4349482 8.8382911,8.4528877 8.7740211,8.4714245 8.7105223,8.4905526 8.6478113,8.5102658 8.5859049,8.530558 8.52482,8.551423 8.4645734,8.5728546 8.4051817,8.5948468 8.3466618,8.6173933 8.2890305,8.6404881 8.2323045,8.664125 8.1765007,8.6882978 8.1216358,8.7130004 8.0677266,8.7382266 8.0147899,8.7639704 7.9628424,8.7902255 7.911901,8.8169858 7.8619834,8.844244 7.8131217,8.8719682 7.7653282,8.9001386 7.7186066,8.9287439 7.6729608,8.9577731 7.6283947,8.9872149 7.5849121,9.0170583 7.5425169,9.0472922 7.501213,9.0779054 7.4610041,9.1088868 7.4218941,9.1402252 7.3838869,9.1719096 7.3469864,9.2039288 7.3111963,9.2362717 7.2765206,9.2689271 7.2429631,9.301884 7.2105276,9.3351311 7.1792179,9.3686574 7.1490381,9.4024518 7.1199918,9.4365031 7.0920829,9.4708001 7.0653153,9.5053318 7.0396929,9.5400871 7.0152194,9.5750547 6.9918988,9.6102237 6.9697067,9.6455807 6.9485889,9.6811231 6.9285434,9.7168622 6.9095697,9.7528094 6.8916672,9.7889761 6.8748352,9.8253739 6.8590733,9.8620142 6.8443809,9.8989084 6.8307573,9.9360681 6.8182021,9.9735046 6.8067147,10.0112296 6.7962944,10.0492543 6.7869407,10.0875904 6.778653,10.1262492 6.7714309,10.1652422 6.7652736,10.2045809 6.7601806,10.2442768 6.7561514,10.2843413 6.7531854,10.3247859 6.751282,10.3656221 6.7504406,10.4068613 6.7506607,10.448515 6.7519417,10.4905946 6.7542931,10.533118 6.7577756,10.5761267 6.7624062,10.6196207 6.7681924,10.6635937 6.7751423,10.7080393 6.7832636,10.7529511 6.792564,10.7983226 6.8030516,10.8441476 6.814734,10.8904196 6.827619,10.9371322 6.8417146,10.984279 6.8570285,11.0318536 6.8735686,11.0798496 6.8913426,11.1282606 6.9103584,11.1770803 6.9306239,11.2263022 6.9521467,11.2759199 6.9749348,11.3259271 6.998996,11.3763173 7.0243381,11.4270841 7.0509689,11.4782212 7.0788962,11.5297222 7.1081279,11.5815805 7.1386705,11.633785 7.1705178,11.686297 7.2036607,11.7391003 7.2380906,11.7921837 7.2737989,11.8455357 7.3107769,11.899145 7.349016,11.9530002 7.3885077,12.00709 7.4292434,12.061403 7.4712144,12.1159278 7.5144121,12.1706531 7.558828,12.2255675 7.6044534,12.2806597 7.6512797,12.3359183 7.6992984,12.3913319 7.7485008,12.4468892 7.7988783,12.5025787 7.8504223,12.5583893 7.9031242,12.6143094 7.9569754,12.6703278 8.0119674,12.726433 8.0680914,12.7826137 8.1253389,12.8388586 8.1837013,12.8951562 8.2431701,12.9514953 8.3037365,13.0078644 8.3653919,13.0642522 8.4281234,13.1206475 8.4919111,13.1770411 8.55674,13.2334257 8.6225954,13.2897935 8.6894626,13.3461372 8.7573267,13.4024491 8.8261729,13.4587218 8.8959866,13.5149476 8.9667528,13.5711191 9.0384569,13.6272288 9.111084,13.683269 9.1846194,13.7392322 9.2590483,13.795111 9.3343559,13.8508977 9.4105274,13.9065849 9.4875481,13.9621649 9.5654031,14.0176304 9.6440778,14.0729736 9.7235572,14.1281872 9.8038267,14.1832635 9.8848714,14.238195 9.9666766,14.2929743 10.0492275,14.3475936 10.1325093,14.4020456 10.2165073,14.4563227 10.3012066,14.5104173 10.3865925,14.5643219 10.4726501,14.6180289 10.5593648,14.6715309 10.6467218,14.7248203 10.7347062,14.7778896 10.8233033,14.8307312 10.9124983,14.8833376 11.0022764,14.9357012 11.0926228,14.9878145 11.1835229,15.03967 11.3668926,15.1425814 11.5522357,15.2443919 11.7394389,15.3450607 11.9283889,15.444547 12.1189726,15.5428097 12.3110766,15.6398081 12.5045879,15.7355013 12.699393,15.8298484 12.8953789,15.9228085 13.0924323,16.0143407 13.2904399,16.1044042 13.4892885,16.192958 13.6888649,16.2799614 13.8890559,16.3653734 14.0897483,16.4491531 14.2908287,16.5312597 14.492184,16.6116523 14.693701,16.69029 14.8952664,16.767132 15.096767,16.8421373 15.2980882,16.9152654 15.4991155,16.9864857 15.6997798,17.0557755 15.9000213,17.1231123 16.0997799,17.1884736 16.2989954,17.2518366 16.497608,17.3131788 16.6955575,17.3724777 16.8927839,17.4297106 17.0892272,17.484855 17.2848273,17.5378882 17.4795242,17.5887876 17.6732579,17.6375308 17.7697448,17.6610867 17.8659683,17.684095 17.9619211,17.7065529 18.0575954,17.7284577 18.152984,17.7498064 18.2480792,17.7705962 18.3428736,17.7908244 18.4373596,17.8104881 18.5315298,17.8295845 18.6253766,17.8481107 18.7188943,17.8660643 18.8120845,17.8834446 18.9049476,17.9002511 18.9974833,17.9164832 19.0896917,17.9321403 19.1815727,17.947222 19.2731261,17.9617276 19.3643519,17.9756567 19.45525,17.9890085 19.5458203,18.0017827 19.6360627,18.0139785 19.7259772,18.0255955 19.8155636,18.0366332 19.9048219,18.0470908 19.993752,18.056968 20.0823538,18.066264 20.1706271,18.0749785 20.2585721,18.0831107 20.3461885,18.0906602 20.4334762,18.0976264 20.5204352,18.1040088 20.6070654,18.1098067 20.6933667,18.1150196 20.7793391,18.119647 20.8649824,18.1236882 20.9502965,18.1271429 21.0352814,18.1300103 21.119937,18.1322899 21.2042632,18.1339812 21.2882599,18.1350836 21.3719271,18.1355966 21.4552646,18.1355196 21.5382723,18.134852 21.6209503,18.1335932 21.7032983,18.1317428 21.7853214,18.1293013 21.8670276,18.1262703 21.9484211,18.1226505 22.0295062,18.1184427 22.1102869,18.1136477 22.1907675,18.1082662 22.2709522,18.1022991 22.3508452,18.095747 22.4304506,18.0886108 22.5097727,18.0808913 22.5888157,18.0725892 22.6675837,18.0637053 22.746081,18.0542403 22.8243117,18.0441951 22.90228,18.0335704 22.9799902,18.022367 23.0574463,18.0105856 23.1346527,17.998227 23.2116135,17.9852921 23.2883329,17.9717815 23.3648151,17.9576961 23.4410643,17.9430366 23.5170846,17.9278038 23.5928803,17.9119984 23.6684556,17.8956213 23.7438146,17.8786732 23.8189616,17.8611549 23.8939008,17.8430672 23.9686362,17.8244108 24.117513,17.785395 24.2656254,17.7441139 24.413007,17.7005736 24.5596915,17.6547802 24.7057122,17.60674 24.8511028,17.5564591 24.9958968,17.5039437 25.1401278,17.4492001 25.2838388,17.3922322 25.4270954,17.3330429 25.5699146,17.2716501 25.7123082,17.2080735 25.8542882,17.1423323 25.9958663,17.0744462 26.1370543,17.0044346 26.2778642,16.9323169 26.4183077,16.8581126 26.5583966,16.7818412 26.6981429,16.7035221 26.8375584,16.6231749 26.9766548,16.540819 27.1154441,16.4564739 27.253938,16.370159 27.3921484,16.2818938 27.5300872,16.1916977 27.6677661,16.0995904 27.8051971,16.0055911 27.9423917,15.9097198 28.0793469,15.8120081 28.216032,15.7124941 28.3524137,15.6112147 28.4884584,15.5082066 28.6241326,15.4035064 28.7594029,15.297151 28.8942359,15.1891769 29.0285981,15.079621 29.1624559,14.9685199 29.295776,14.8559104 29.4285249,14.7418291 29.5606691,14.6263129 29.6921751,14.5093984 29.8230095,14.3911223 29.9531387,14.2715214 30.0825295,14.1506324 30.2111482,14.0284919 30.3389614,13.9051368 30.4659329,13.7806036 30.5919941,13.6549318 30.7170812,13.5281685 30.8411355,13.4003613 30.9640986,13.2715583 31.0859117,13.1418073 31.2065165,13.0111562 31.3258543,12.8796529 31.4438666,12.7473452 31.5604948,12.614281 31.6756804,12.4805082 31.7893649,12.3460748 31.9014896,12.2110284 32.011996,12.0754172 32.1208257,11.9392888 32.2279199,11.8026912 32.3332202,11.6656723 32.436668,11.52828 32.5382048,11.3905621 32.6377719,11.2525665 32.735311,11.1143411 32.8307633,10.9759338 32.9240704,10.8373924 33.0151737,10.6987649 33.1040079,10.5601009 33.1904747,10.4214636 33.2328039,10.3521729 33.2745235,10.2829099 33.3156283,10.2136815 33.3561133,10.1444946 33.3959734,10.0753559 33.4352034,10.0062723 33.4737982,9.9372507 33.5117527,9.8682979 33.5490618,9.7994207 33.5857203,9.730626 33.6217233,9.6619207 33.6570655,9.5933115 33.6917418,9.5248054 33.7257471,9.4564091 33.7590763,9.3881295 33.7917244,9.3199735 33.8236861,9.2519479 33.8549564,9.1840595 33.8855301,9.1163152 33.9154022,9.0487219 33.9445674,8.9812863 33.9730208,8.9140153 34.0007572,8.8469158 34.0277715,8.7799946 34.0540586,8.7132585 34.0796133,8.6467145 34.1044305,8.5803692 34.1285052,8.5142297 34.1518321,8.4483027 34.1744063,8.382595 34.1962226,8.3171136 34.2172758,8.2518652 34.2375609,8.1868567 34.2570727,8.1220949 34.2758062,8.0575867 34.2937562,7.993339 34.3109176,7.9293585 34.3272858,7.8656544 34.3428607,7.8022409 34.3576437,7.7391231 34.3716363,7.6763057 34.3848399,7.613793 34.397256,7.5515896 34.408886,7.4896998 34.4197314,7.4281283 34.4297935,7.3668795 34.439074,7.3059578 34.4475741,7.2453677 34.4552954,7.1851138 34.4622393,7.1252004 34.4684073,7.0656321 34.4738007,7.0064132 34.4784211,6.9475484 34.4822698,6.8890421 34.4853484,6.8308988 34.4876582,6.7731228 34.4892008,6.7157188 34.4899775,6.6586911 34.4899898,6.6020443 34.4892392,6.5457829 34.4877271,6.4899112 34.4854549,6.4344339 34.4824242,6.3793553 34.4786362,6.3246799 34.4740926,6.2704122 34.4687947,6.2165568 34.462744,6.163118 34.4559419,6.1101003 34.4483898,6.0575082 34.4400893,6.0053463 34.4310418,5.9536188 34.4212486,5.9023305 34.4107183,5.8514788 34.3994635,5.8010562 34.3874874,5.751064 34.3747934,5.7015036 34.3613844,5.6523764 34.3472636,5.6036839 34.3324343,5.5554274 34.3168995,5.5076084 34.3006623,5.4602282 34.283726,5.4132882 34.2660937,5.3667899 34.2477685,5.3207346 34.2287536,5.2751238 34.2090521,5.2299589 34.1886672,5.1852412 34.1676021,5.1409722 34.1458598,5.0971533 34.1234435,5.0537859 34.1003564,5.0108714 34.0766017,4.9684111 34.0521824,4.9264066 34.0271017,4.8848591 34.0013628,4.8437702 33.9749688,4.8031412 33.9479229,4.7629735 33.9202282,4.7232685 33.8918879,4.6840277 33.8629051,4.6452523 33.833283,4.6069439 33.8030247,4.5691039 33.7721333,4.5317336 33.740612,4.4948344 33.708464,4.4584078 33.6756925,4.4224552 33.6423004,4.3869779 33.6082911,4.3519774 33.5736677,4.3174551 33.5384332,4.2834123 33.5025909,4.2498505 33.4661439,4.2167711 33.4290954,4.1841755 33.3914484,4.1520651 33.3532063,4.1204413 33.314372,4.0893055 33.274945,4.0586656 33.2349242,4.0285345 33.1943162,3.9989143 33.1531276,3.9698069 33.1113653,3.9412143 33.0690358,3.9131386 33.0261459,3.8855816 32.9827023,3.8585454 32.9387118,3.8320319 32.8941809,3.8060432 32.8491165,3.7805811 32.8035253,3.7556477 32.7574138,3.7312449 32.710789,3.7073748 32.6636574,3.6840392 32.6160257,3.6612401 32.5679007,3.6389796 32.5192892,3.6172596 32.4701977,3.5960821 32.420633,3.5754491 32.3706018,3.5553625 32.3201108,3.5358242 32.2691668,3.5168364 32.2177764,3.4984009 32.1659463,3.4805198 32.1136833,3.4631949 32.060994,3.4464284 32.0078852,3.430222 31.9543635,3.414578 31.9004358,3.3994981 31.8461086,3.3849844 31.7913887,3.3710388 31.7362828,3.3576634 31.6807976,3.3448601 31.6249399,3.3326308 31.5687163,3.3209776 31.5121334,3.3099025 31.4551982,3.2994073 31.3979172,3.2894941 31.3402979,3.280165 31.2823573,3.2714227 31.2241066,3.2632654 31.1655541,3.2556901 31.1067081,3.248694 31.0475771,3.2422743 30.9881692,3.236428 30.9284928,3.2311523 30.8685562,3.2264444 30.8083678,3.2223014 30.7479358,3.2187203 30.6872686,3.2156984 30.6263745,3.2132328 30.5039388,3.2099589 30.3806954,3.2088756 30.2567107,3.2099602 30.1320513,3.2131896 30.0067838,3.2185409 29.8809747,3.2259912 29.7546906,3.2355176 29.6279979,3.247097 29.5009634,3.2607067 29.3736535,3.2763236 29.2461347,3.2939249 29.1184737,3.3134875 28.990737,3.3349886 28.8629919,3.3584047 28.7353231,3.383687 28.6077874,3.4107785 28.4804286,3.4396268 28.3532907,3.47018 28.2264175,3.5023859 28.099853,3.5361924 27.973641,3.5715476 27.8478254,3.6083993 27.7224501,3.6466953 27.597559,3.6863837 27.473196,3.7274123 27.349405,3.769729 27.2262299,3.8132818 27.1037145,3.8580186 26.9819028,3.9038872 26.8608387,3.9508357 26.740566,3.9988118 26.6211286,4.0477636 26.5025705,4.0976389 26.3849365,4.1483835 26.2682628,4.1999245 26.152551,4.2521955 26.0377986,4.3051334 25.9240028,4.3586752 25.8111612,4.4127575 25.699271,4.4673173 25.5883297,4.5222915 25.4783347,4.5776169 25.3692834,4.6332304 25.2611731,4.6890688 25.1540013,4.7450689 25.0477653,4.8011677 24.9424626,4.8573019 24.8380905,4.9134085 24.7346464,4.9694243 24.6321277,5.0252861 24.5305318,5.0809309 24.4298552,5.1362954 24.3300666,5.1913169 24.2311144,5.2459308 24.132948,5.3000722 24.0355173,5.3536765 23.9387719,5.4066785 23.8426614,5.4590136 23.7471357,5.5106168 23.6521443,5.5614232 23.5576369,5.6113681 23.4635633,5.6603865 23.369873,5.7084136 23.2765159,5.7553845 23.1834415,5.8012343 23.0905996,5.8458982 22.9979398,5.8893113 22.9054119,5.9314088 22.8129654,5.9721258 22.7205502,6.0113974 22.6281158,6.0491588 22.535612,6.0853451 22.4429885,6.1198914 22.3501948,6.1527329 22.2571808,6.1838047 22.1638685,6.2129958 22.0702038,6.2402149 21.9761721,6.2654277 21.8817589,6.2885998 21.7869496,6.3096967 21.6917297,6.328684 21.5960847,6.3455273 21.5,6.3601922 21.5,6 20.5,6 20.5,6.378867 20.5,6.378867 20.4044739,6.3684527 20.308407,6.3560809 20.2117682,6.3417871 20.1145265,6.3256068 20.0166506,6.3075756 19.9181095,6.2877288 19.818872,6.2661021 19.718907,6.2427308 19.6181833,6.2176506 19.5166699,6.1908969 19.4143356,6.1625051 19.3111493,6.1325109 19.2070799,6.1009496 19.1020962,6.0678569 18.9961414,6.0332709 18.889128,5.99724 18.7810299,5.959812 18.6718232,5.9210343 18.5614842,5.8809547 18.4499892,5.8396206 18.3373144,5.7970796 18.2234362,5.7533794 18.1083307,5.7085674 17.9919742,5.6626914 17.874343,5.6157988 17.7554134,5.5679372 17.6351615,5.5191542 17.5135638,5.4694974 17.3905963,5.4190144 17.2662354,5.3677527 17.1404573,5.31576 17.0132384,5.2630837 16.8845547,5.2097716 16.7543828,5.1558711 16.6226986,5.1014298 16.4894787,5.0464963 16.3547108,4.9911361 16.2184076,4.9354064 16.0805846,4.8793586 15.9412576,4.8230437 15.8004422,4.7665129 15.6581541,4.7098174 15.5144089,4.6530085 15.3692223,4.5961374 15.2226101,4.5392552 15.0745877,4.4824131 14.925171,4.4256623 14.7743755,4.3690541 14.6222169,4.3126396 14.468711,4.25647 14.3138733,4.2005965 14.1577196,4.1450704 14.0002654,4.0899427 13.8415265,4.0352648 13.6815185,3.9810878 13.5202598,3.9274649 13.3577955,3.8744502 13.1941848,3.8220828 13.0294868,3.7704004 12.8637607,3.7194411 12.6970656,3.6692425 12.5294606,3.6198427 12.3610049,3.5712793 12.1917577,3.5235904 12.0217779,3.4768136 11.8511248,3.430987 11.6798576,3.3861482 11.5080352,3.3423353 11.335717,3.299586 11.162962,3.2579382 10.9898293,3.2174297 10.8163781,3.1780984 10.6426676,3.1399821 10.4687568,3.1031188 10.2947076,3.067547 10.120613,3.0333077 9.9465607,3.0004233 9.7726331,2.9689129 9.5989125,2.9387956 9.4254813,2.9100906 9.2524217,2.882817 9.0798162,2.8569939 8.9077471,2.8326404 8.7362967,2.8097756 8.5655474,2.7884186 8.3955815,2.7685885 8.2264814,2.7503045 8.0583295,2.7335856 7.891208,2.718451 7.7251993,2.7049198 7.5603858,2.6930111 7.3968498,2.682744 7.2346736,2.6741376 7.0739397,2.667211 6.9147303,2.6619834 6.7571278,2.6584738 6.6789548,2.6573693 6.6012145,2.6567014 6.5239171,2.6564726 6.4470728,2.6566853 6.3706973,2.6573423 6.2948055,2.6584444 6.2194065,2.6599907 6.1445093,2.6619802 6.0701231,2.664412 5.9962568,2.6672852 5.9229195,2.670599 5.8501203,2.6743523 5.7778683,2.6785442 5.7061724,2.6831739 5.6350418,2.6882404 5.5644856,2.6937428 5.4945127,2.6996801 5.4251323,2.7060515 5.3563533,2.712856 5.2881849,2.7200928 5.2206362,2.7277608 5.1537161,2.7358592 5.0874337,2.744387 5.0217981,2.7533434 4.9568184,2.7627274 4.8925036,2.7725381 4.8288628,2.7827746 4.7659049,2.7934359 4.7036392,2.8045212 4.6420746,2.8160295 4.5812203,2.8279598 4.5210852,2.8403114 4.4616784,2.8530832 4.403009,2.8662743 4.345086,2.8798839 4.2879186,2.8939109 4.2315157,2.9083546 4.1758864,2.9232139 4.1210398,2.9384879 4.0669849,2.9541758 4.0137309,2.9702765 3.9612866,2.9867893 3.909669,3.0037044 3.8588884,3.02101 3.8089446,3.0387019 3.7598373,3.0567759 3.7115661,3.0752277 3.6641308,3.0940532 3.617531,3.113248 3.5717665,3.1328079 3.5268369,3.1527289 3.4827419,3.1730065 3.4394812,3.1936366 3.3970545,3.214615 3.3554615,3.2359374 3.3147019,3.2575996 3.2747753,3.2795974 3.2356815,3.3019265 3.1974202,3.3245828 3.159991,3.347562 3.1233937,3.3708599 3.0876279,3.3944723 3.0526933,3.4183949 3.0185896,3.4426234 2.9853165,3.4671538 2.9528737,3.4919818 2.921261,3.517103 2.8904778,3.5425134 2.8605241,3.5682087 2.831398,3.5941841 2.8030588,3.6204262 2.7754829,3.6469363 2.7486631,3.6737226 2.7225921,3.7007931 2.6972628,3.7281561 2.6726679,3.7558197 2.6488002,3.783792 2.6256526,3.8120811 2.6032178,3.8406953 2.5814886,3.8696426 2.5604578,3.8989312 2.5401183,3.9285693 2.5204627,3.9585649 2.501484,3.9889263 2.4831748,4.0196615 2.4655281,4.0507788 2.4485365,4.0822862 2.4321929,4.1141919 2.4164902,4.1465041 2.4014209,4.1792308 2.3869781,4.2123803 2.3731545,4.2459607 2.3599428,4.2799801 2.3473358,4.3144466 2.3353265,4.3493685 2.3239074,4.3847538 2.3130716,4.4206107 2.3028117,4.4569474 2.2931289,4.4937792 2.2840509,4.5311377 2.2755804,4.5690246 2.2677169,4.6074391 2.2604602,4.64638 2.2538101,4.6858463 2.2477663,4.7258371 2.2423285,4.7663513 2.2374964,4.8073879 2.2332697,4.8489458 2.2296482,4.8910241 2.2266316,4.9336218 2.2242197,4.9767378 2.222412,5.0203711 2.2212084,5.0645206 2.2206086,5.1091855 2.2206123,5.1543646 2.2212192,5.200057 2.2224291,5.2462616 2.2242417,5.2929774 2.2266566,5.3402034 2.2296737,5.3879386 2.2332926,5.436182 2.2375131,5.4849325 2.2423348,5.5341891 2.2477576,5.5839508 2.2537811,5.6342166 2.2604051,5.6849855 2.2676292,5.7362565 2.2754507,5.7880201 2.2838613,5.8402562 2.2928553,5.8929599 2.3024274,5.9461262 2.3125719,5.9997504 2.3232836,6.0538279 2.3345568,6.1083539 2.3463861,6.1633236 2.358766,6.2187322 2.371691,6.2745751 2.3851557,6.3308475 2.3991545,6.3875446 2.413682,6.4446617 2.4287327,6.5021941 2.4443012,6.5601369 2.4603819,6.6184856 2.4769694,6.6772353 2.4940581,6.7363812 2.5116426,6.7959187 2.5297175,6.855843 2.5482772,6.9161493 2.5673163,6.9768329 2.5868293,7.0378891 2.6272549,7.1611002 2.6695103,7.2857445 2.7135516,7.4117842 2.759335,7.5391813 2.8068167,7.6678979 2.8559527,7.7978959 2.9066993,7.9291374 2.9590126,8.0615845 3.0128487,8.1951992 3.0681639,8.3299436 3.1249142,8.4657797 3.1830559,8.6026696 3.242545,8.7405753 3.3033378,8.8794588 3.3653905,9.0192822 3.4286505,9.1600126 3.4930783,9.3016202 3.5586528,9.44407 3.6253528,9.5873269 3.6931575,9.7313559 3.7620456,9.876122 3.8319964,10.0215901 3.9029886,10.1677254 3.9750013,10.3144926 4.0480134,10.4618569 4.122004,10.6097832 4.1969519,10.7582364 4.2728362,10.9071816 4.3496359,11.0565838 4.4273299,11.2064078 4.5058971,11.3566188 4.5853166,11.5071816 4.6655674,11.6580613 4.7466283,11.8092229 4.8284784,11.9606312 4.9110967,12.1122514 4.9944621,12.2640483 5.0785537,12.415987 5.1633597,12.5680281 5.2488798,12.7201347 5.335112,12.8722733 5.4220543,13.0244104 5.5097047,13.1765124 5.5980613,13.328546 5.6871219,13.4804775 5.7768847,13.6322736 5.8673476,13.7839008 5.9585087,13.9353255 6.050366,14.0865142 6.1429175,14.2374336 6.2361611,14.38805 6.3300949,14.53833 6.424717,14.6882402 6.5200253,14.837747 6.6160178,14.9868169 6.7126926,15.1354164 6.8100476,15.2835122 6.9080809,15.4310706 7.0067905,15.5780581 7.1061744,15.7244414 7.2062306,15.8701869 7.3069571,16.0152612 7.4083519,16.1596306 7.510413,16.3032618 7.6131386,16.4461213 7.7165345,16.5881709 7.820622,16.7293696 7.9254049,16.8696923 8.0308863,17.0091146 8.1370692,17.1476119 8.2439566,17.2851598 8.3515515,17.4217338 8.4598571,17.5573094 8.5688762,17.6918622 8.6786119,17.8253677 8.7890673,17.9578013 8.9002453,18.0891387 9.0121491,18.2193553 9.1247815,18.3484267 9.2381457,18.4763283 9.3522446,18.6030358 9.4670813,18.7285245 9.5826588,18.8527701 9.6989801,18.9757481 9.8160483,19.097434 9.9338663,19.2178033 10.0524372,19.3368315 10.171764,19.4544942 10.2918498,19.5707669 10.4126976,19.685625 10.5343103,19.7990442 10.656691,19.911 10.7798428,20.0214678 10.9037686,20.1304232 11.0284746,20.2378478 11.1539619,20.3437323 11.2802263,20.4480666 11.4072639,20.5508404 11.5350708,20.6520437 11.6636429,20.7516661 11.7929763,20.8496976 11.9230669,20.9461279 12.0539108,21.0409469 12.1855041,21.1341444 12.3178426,21.2257101 12.4509225,21.3156341 12.5847397,21.4039059 12.7192903,21.4905156 12.8545702,21.5754528 12.9905756,21.6587075 13.1273023,21.7402694 13.2647465,21.8201283 13.4029041,21.8982742 13.5417712,21.9746967 13.6813437,22.0493858 13.8216177,22.1223312 13.9625892,22.1935227 14.1042542,22.2629503 14.2466088,22.3306036 14.3896488,22.3964726 14.5333704,22.460547 14.6777696,22.5228178 14.8228388,22.5832837 14.9685671,22.6419444 15.1149432,22.6987994 15.261956,22.7538482 15.4095943,22.8070903 15.5578468,22.8585251 15.7067024,22.9081521 15.8561497,22.9559708 16.0061777,23.0019807 16.1567752,23.0461813 16.3079308,23.088572 16.4596335,23.1291523 16.611872,23.1679216 16.764635,23.2048796 16.9179115,23.2400256 17.0716902,23.2733591 17.2259598,23.3048796 17.3807092,23.3345867 17.5359272,23.3624796 17.6916026,23.388558 17.8477242,23.4128214 18.0042806,23.4352691 18.1612609,23.4559007 18.3186537,23.4747157 18.4764478,23.4917135 18.6346321,23.5068936 18.7931953,23.5202555 18.9521262,23.5317987 19.1114137,23.5415226 19.2710464,23.5494267 19.4310082,23.5555109 19.5912797,23.5597799 19.7518447,23.5622409 19.9126868,23.5629009 20.0737899,23.5617671 20.2351377,23.5588465 20.396714,23.5541463 20.5585024,23.5476734 20.7204868,23.539435 20.8826509,23.5294381 21.0449785,23.5176899 21.2074532,23.5041974 21.3700588,23.4889677 21.5327792,23.4720079 21.695598,23.453325 21.858499,23.4329263 22.0214659,23.4108186 22.1844824,23.3870092 22.3475325,23.3615051 22.5105997,23.3343133 22.6736678,23.305441 22.8367206,23.2748953 22.9997418,23.2426832 23.1627152,23.2088119 23.3256245,23.1732883 23.4884535,23.1361196 23.6511859,23.0973129 23.8138055,23.0568752 23.976296,23.0148137 24.1386411,22.9711353 24.3008247,22.9258473 24.4628304,22.8789567 24.6246421,22.8304705 24.7862433,22.7803958 24.947618,22.7287398 25.1087499,22.6755095 25.2696216,22.6207129 25.4302056,22.5643683 25.5904835,22.5064894 25.7504399,22.4470875 25.9100595,22.3861738 26.0693269,22.3237597 26.2282268,22.2598565 26.3867439,22.1944755 26.5448628,22.127628 26.7025681,22.0593254 26.8598446,21.9895789 27.0166769,21.9183998 27.1730497,21.8457994 27.3289475,21.7717892 27.4843551,21.6963802 27.6392572,21.619584 27.7936383,21.5414117 27.9474832,21.4618747 28.1007765,21.3809843 28.2535029,21.2987518 28.405647,21.2151885 28.5571935,21.1303057 28.7081271,21.0441148 28.8584323,20.9566269 29.0080939,20.8678535 29.1570966,20.7778059 29.3054249,20.6864953 29.4530636,20.5939331 29.5999973,20.5001306 29.7462107,20.405099 29.8916884,20.3088497 30.036415,20.211394 30.1803754,20.1127433 30.323554,20.0129087 30.4659356,19.9119016 30.6075048,19.8097334 30.7482463,19.7064153 30.8881448,19.6019587 31.0271848,19.4963748 31.1653511,19.3896749 31.3026284,19.2818705 31.4390012,19.1729727 31.574454,19.0629946 31.708972,18.9519569 31.8425448,18.8398703 31.9751626,18.7267438 32.1068157,18.6125863 32.2374941,18.4974068 32.3671881,18.3812141 32.4958879,18.2640173 32.6235835,18.1458253 32.7502653,18.0266471 32.8759234,17.9064915 33.0005479,17.7853675 33.1241291,17.6632841 33.2466571,17.5402502 33.3681221,17.4162748 33.4885142,17.2913668 33.6078238,17.1655351 33.7260408,17.0387886 33.8431556,16.9111365 33.9591583,16.7825875 34.074039,16.6531506 34.187788,16.5228348 34.3003954,16.3916489 34.4118515,16.2596021 34.5221463,16.1267031 34.6312701,15.992961 34.7392131,15.8583846 34.8459653,15.722983 34.9515171,15.586765 35.0558586,15.4497397 35.1589799,15.3119159 35.2608713,15.1733026 35.3615229,15.0339088 35.4609248,14.8937433 35.5590687,14.7528149 35.6559518,14.6111285 35.7515708,14.4686874 35.8459218,14.3254948 35.9390014,14.1815538 36.0308056,14.0368677 36.121331,13.8914396 36.2105738,13.7452728 36.2985303,13.5983704 36.3851969,13.4507356 36.4705698,13.3023715 36.5546454,13.1532815 36.63742,13.0034686 36.71889,12.8529361 36.7990516,12.7016872 36.8779011,12.5497249 36.955435,12.3970526 37.0316494,12.2436734 37.1065408,12.0895906 37.1801054,11.9348072 37.2523396,11.7793264 37.3232396,11.6231516 37.3928019,11.4662858 37.4610226,11.3087322 37.5278982,11.1504941 37.593425,10.9915746 37.6575993,10.8319769 37.7204173,10.6717042 37.7818754,10.5107597 37.84197,10.3491466 37.9006974,10.186868 37.9580538,10.0239272 38.0140356,9.8603274 38.0686392,9.6960716 38.1218607,9.5311632 38.1736972,9.3656045 38.2241511,9.1993916 38.2732227,9.0325231 38.3209111,8.8649989 38.3672155,8.6968191 38.4121351,8.5279835 38.4556691,8.3584921 38.4978168,8.1883449 38.5385773,8.0175418 38.5779498,7.8460829 38.6159335,7.6739679 38.6525277,7.501197 38.6877314,7.32777 38.7215439,7.1536869 38.7539644,6.9789476 38.7849922,6.8035522 38.8146263,6.6275006 38.842866,6.4507926 38.8697104,6.2734284 38.8951589,6.0954078 38.9192105,5.9167308 38.9418645,5.7373973 38.9631201,5.5574073 38.9829764,5.3767608 39.0014327,5.1954577 39.0184882,5.013498 39.034142,4.8308816 39.0483934,4.6476084 39.0612415,4.4636785 39.0726855,4.2790918 39.0827247,4.0938482 39.0913583,3.9079477 39.0985854,3.7213903 39.1044052,3.5341759 39.1088169,3.3463044 39.1118198,3.1577759 39.1134129,2.9685902 39.1135956,2.7787473 39.112367,2.5882473 39.1097264,2.39709 39.1056728,2.2052753 39.1002055,2.0128033 A0.4,0.4 178.1657428 0,0 39.899795,1.9871967 L39.8997956,1.9871967 39.9052092,2.1767678 39.9092901,2.3657794 39.9120388,2.5542307 39.9134554,2.7421206 39.9135401,2.929448 39.9122931,3.1162119 39.9097147,3.3024113 39.9058052,3.4880452 39.9005647,3.6731126 39.8939935,3.8576124 39.8860918,4.0415435 39.8768598,4.2249051 39.8662977,4.407696 39.8544059,4.5899153 39.8411845,4.7715618 39.8266337,4.9526347 39.8107538,5.1331328 39.7935451,5.3130551 39.7750076,5.4924007 39.7551418,5.6711684 39.7339477,5.8493573 39.7114256,6.0269664 39.6875758,6.2039945 39.6623985,6.3804408 39.6358939,6.5563041 39.6080622,6.7315834 39.5789038,6.9062778 39.5484187,7.0803862 39.5166072,7.2539076 39.4834696,7.4268409 39.4490061,7.5991851 39.4132168,7.7709392 39.3761022,7.9421022 39.3376623,8.112673 39.2978974,8.2826507 39.2568077,8.4520342 39.2143935,8.6208225 39.170655,8.7890145 39.1255924,8.9566092 39.079206,9.1236057 39.0314959,9.2900028 38.9824625,9.4557996 38.9321058,9.6209951 38.8804254,9.7855883 38.8274204,9.9495774 38.7730945,10.1129588 38.7174516,10.2757287 38.6604954,10.4378832 38.6022298,10.5994186 38.5426587,10.7603312 38.4817859,10.920617 38.4196152,11.0802724 38.3561505,11.2392936 38.2913957,11.3976767 38.2253546,11.555418 38.158031,11.7125137 38.0894288,11.8689601 38.0195517,12.0247533 37.9484038,12.1798895 37.8759888,12.3343651 37.8023105,12.4881761 37.7273729,12.6413188 37.6511796,12.7937895 37.5737347,12.9455843 37.4950419,13.0966994 37.4151051,13.2471311 37.3339282,13.3968757 37.2515149,13.5459292 37.1678691,13.694288 37.0829947,13.8419481 36.9968955,13.988906 36.9095754,14.1351577 36.8210381,14.2806996 36.7312876,14.4255277 36.6403277,14.5696383 36.5481622,14.7130277 36.454795,14.8556921 36.36023,14.9976276 36.2644709,15.1388306 36.1675216,15.2792971 36.069386,15.4190235 35.9700682,15.5580063 35.8695757,15.6962398 35.7679176,15.8337159 35.6651028,15.9704268 35.5611403,16.1063648 35.456039,16.2415219 35.3498079,16.3758904 35.242456,16.5094623 35.1339922,16.6422298 35.0244256,16.7741851 34.9137651,16.9053203 34.8020197,17.0356276 34.6891983,17.1650991 34.5753099,17.293727 34.4603635,17.4215035 34.344368,17.5484207 34.2273325,17.6744707 34.1092658,17.7996457 33.9901771,17.9239378 33.8700752,18.0473393 33.748969,18.1698423 33.6268677,18.2914388 33.5037801,18.4121212 33.3797153,18.5318814 33.2546821,18.6507118 33.1286896,18.7686044 33.0017468,18.8855513 32.8738625,19.0015448 32.7450458,19.1165771 32.6153057,19.2306401 32.4846511,19.3437262 32.353091,19.4558274 32.2206344,19.5669359 32.0872902,19.6770439 31.9530674,19.7861436 31.817975,19.894227 31.6820219,20.0012862 31.5452193,20.1073075 31.4075808,20.2122766 31.2691194,20.3161836 31.1298481,20.4190184 30.9897799,20.5207709 30.8489279,20.6214312 30.707305,20.7209891 30.5649244,20.8194346 30.4217989,20.9167577 30.2779418,21.0129483 30.133366,21.1079963 29.9880844,21.2018918 29.8421103,21.2946246 29.6954565,21.3861847 29.5481361,21.4765621 29.4001621,21.5657468 29.2515476,21.6537286 29.1023056,21.7404975 28.9524491,21.8260436 28.8019912,21.9103566 28.6509448,21.9934266 28.499323,22.0752436 28.3471388,22.1557975 28.1944053,22.2350782 28.0411355,22.3130756 27.8873424,22.3897799 27.733039,22.4651808 27.5782384,22.5392683 27.4229536,22.6120325 27.2671976,22.6834632 27.1109835,22.7535504 26.9543242,22.8222841 26.7972328,22.8896542 26.6397224,22.9556506 26.4818059,23.0202634 26.3234964,23.0834824 26.164807,23.1452976 26.0057505,23.2056989 25.8463402,23.2646764 25.6865889,23.32222 25.5265098,23.3783196 25.3661158,23.4329651 25.20542,23.4861466 25.0444354,23.537854 24.883175,23.5880772 24.7216559,23.6368004 24.5598968,23.6840088 24.3979124,23.7296952 24.2357172,23.7738527 24.0733259,23.8164743 23.9107529,23.8575529 23.7480129,23.8970816 23.5851206,23.9350533 23.4220903,23.971461 23.2589369,24.0062978 23.0956747,24.0395565 22.9323185,24.0712302 22.7688828,24.1013119 22.6053823,24.1297946 22.4418314,24.1566713 22.2782447,24.1819348 22.114637,24.2055783 21.9510226,24.2275948 21.7874163,24.2479771 21.6238327,24.2667184 21.4602862,24.2838115 21.2967916,24.2992496 21.1333633,24.3130255 20.970016,24.3251322 20.8067642,24.3355628 20.6436226,24.3443103 20.4806057,24.3513675 20.3177281,24.3567276 20.1550045,24.3603835 19.9924493,24.3623282 19.8300772,24.3625547 19.6679028,24.361056 19.5059406,24.357825 19.3442053,24.3528548 19.1827113,24.3461383 19.0214734,24.3376685 18.8605061,24.3274385 18.699824,24.3154412 18.5394439,24.3016693 18.3793853,24.2861193 18.2196611,24.2687924 18.0602839,24.24969 17.9012662,24.2288135 17.7426208,24.2061642 17.5843602,24.1817435 17.4264971,24.1555527 17.269044,24.1275932 17.1120136,24.0978664 16.9554184,24.0663735 16.7992712,24.033116 16.6435844,23.9980953 16.4883707,23.9613126 16.3336428,23.9227694 16.1794132,23.882467 16.0256945,23.8404067 15.8724994,23.79659 15.7198405,23.7510182 15.5677303,23.7036926 15.4161816,23.6546146 15.2652068,23.6037855 15.1148187,23.5512068 14.9650298,23.4968797 14.8158527,23.4408057 14.6673001,23.3829861 14.5193846,23.3234222 14.3721187,23.2621154 14.2255151,23.1990671 14.0795865,23.1342787 13.9343487,23.0677541 13.7898115,22.9995046 13.64598,22.929543 13.5028598,22.8578818 13.3604561,22.7845335 13.2187743,22.7095109 13.0778199,22.6328265 12.937598,22.554493 12.7981142,22.4745229 12.6593737,22.3929288 12.521382,22.3097234 12.3841444,22.2249192 12.2476662,22.1385289 12.1119528,22.0505651 11.9770096,21.9610403 11.8428419,21.8699672 11.7094551,21.7773585 11.5768545,21.6832266 11.4450456,21.5875842 11.3140337,21.490444 11.1838241,21.3918184 11.0544222,21.2917202 10.9258333,21.190162 10.7980629,21.0871562 10.6711162,20.9827157 10.5449987,20.8768528 10.4197157,20.7695804 10.2952706,20.6609119 10.1716591,20.5508682 10.0488767,20.4394729 9.9269194,20.3267495 9.8057829,20.2127217 9.685463,20.097413 9.5659556,19.980847 9.4472565,19.8630473 9.3293615,19.7440375 9.2122664,19.6238412 9.0959669,19.5024819 8.9804591,19.3799833 8.8657385,19.2563689 8.7518011,19.1316624 8.6386427,19.0058873 8.526259,18.8790672 8.414646,18.7512257 8.3037993,18.6223864 8.1937149,18.4925729 8.0843885,18.3618087 7.9758159,18.2301175 7.867993,18.0975228 7.7609155,17.9640483 7.6545794,17.8297174 7.5489803,17.6945539 7.4441142,17.5585812 7.3399767,17.4218231 7.2365638,17.284303 7.1338713,17.1460445 7.0318949,17.0070714 6.9306305,16.867407 6.8300738,16.7270751 6.7302208,16.5860991 6.6310558,16.44451 6.5325589,16.3023455 6.4347305,16.1596334 6.3375714,16.0164012 6.2410822,15.8726766 6.1452638,15.7284871 6.0501167,15.5838604 5.9556418,15.4388239 5.8618398,15.2934054 5.7687115,15.1476324 5.6762574,15.0015324 5.5844784,14.8551332 5.4933753,14.7084622 5.4029486,14.5615471 5.3131992,14.4144154 5.2241278,14.2670948 5.1357351,14.1196129 5.0480219,13.9719971 4.9609888,13.8242752 4.8746366,13.6764747 4.7889661,13.5286231 4.7039779,13.3807482 4.6196728,13.2328775 4.5360515,13.0850385 4.4531147,12.9372589 4.3708632,12.7895662 4.2892977,12.6419881 4.208419,12.4945521 4.1282277,12.3472889 4.0487336,12.2002313 3.9699537,12.0534037 3.8919057,11.90683 3.814607,11.7605342 3.7380749,11.6145402 3.6623271,11.468872 3.5873809,11.3235534 3.5132538,11.1786085 3.4399632,11.0340612 3.3675267,10.8899354 3.2959616,10.7462552 3.2252854,10.6030443 3.1555157,10.4603269 3.0866697,10.3181267 3.0187651,10.1764679 2.9518192,10.0353742 2.8858496,9.8948697 2.8208736,9.7549784 2.7569088,9.615724 2.6939725,9.4771307 2.6320823,9.3392224 2.5712556,9.2020229 2.5115101,9.0655583 2.4528754,8.9298529 2.3953928,8.7949179 2.3391039,8.6607639 2.2840503,8.5274014 2.2302738,8.3948411 2.1778159,8.2630936 2.1267183,8.1321693 2.0770226,8.002079 2.0287704,7.8728332 1.9820034,7.7444424 1.9367633,7.6169172 1.8930916,7.4902683 1.8510301,7.3645062 1.8106203,7.2396415 1.7719038,7.1156847 1.7349224,6.9926465 1.6997177,6.8705375 1.6663312,6.7493681 1.6348047,6.6291491 1.6051798,6.5098909 1.5774983,6.391603 1.5518153,6.2742552 1.5282002,6.1578356 1.5067217,6.0423513 1.4968053,5.9849621 1.4874488,5.9278093 1.4786609,5.8708938 1.4704503,5.8142166 1.4628254,5.7577784 1.455795,5.7015802 1.4493676,5.6456228 1.4435518,5.5899072 1.4383563,5.5344341 1.4337896,5.4792045 1.4298603,5.4242193 1.4265771,5.3694792 1.4239486,5.3149853 1.4219833,5.2607384 1.4206899,5.2067394 1.420077,5.152989 1.4201532,5.0994883 1.420927,5.0462381 1.4224072,4.9932393 1.4246023,4.9404928 1.4275208,4.8879993 1.4311715,4.8357599 1.435563,4.7837753 1.4407037,4.7320466 1.4466024,4.6805744 1.4532718,4.6293597 1.4607479,4.5784055 1.4690402,4.5277211 1.478152,4.4773166 1.4880867,4.4272018 1.4988478,4.3773868 1.5104386,4.3278813 1.5228625,4.2786955 1.5361228,4.2298392 1.5502231,4.1813223 1.5651666,4.1331549 1.5809569,4.0853468 1.5975971,4.0379081 1.6150908,3.9908486 1.6334414,3.9441782 1.6526522,3.8979071 1.6727265,3.852045 1.6936679,3.8066019 1.7154797,3.7615878 1.7381653,3.7170127 1.7617281,3.6728864 1.7861714,3.6292189 1.8114987,3.5860201 1.8377133,3.5433 1.8648187,3.5010686 1.8928182,3.4593358 1.9217151,3.4181115 1.9514886,3.377427 1.9821137,3.3373037 2.0135827,3.2977418 2.045888,3.2587418 2.079022,3.2203041 2.1129771,3.1824289 2.1477457,3.1451167 2.18332,3.1083679 2.2196926,3.0721828 2.2568557,3.0365618 2.2948018,3.0015053 2.3335231,2.9670135 2.3730121,2.933087 2.4132612,2.8997261 2.4542627,2.8669311 2.496009,2.8347024 2.5384925,2.8030404 2.5817055,2.7719454 2.6256405,2.7414179 2.6702897,2.7114582 2.7156456,2.6820666 2.7617005,2.6532436 2.8084468,2.6249895 2.8558769,2.5973047 2.9039831,2.5701895 2.9527579,2.5436443 3.0021936,2.5176695 3.0522825,2.4922655 3.1030171,2.4674326 3.1543995,2.4431514 3.2064325,2.4194029 3.2591108,2.3961847 3.3124292,2.3734942 3.3663825,2.3513289 3.4209655,2.3296864 3.476173,2.3085642 3.5319997,2.2879598 3.5884405,2.2678706 3.64549,2.2482944 3.7031432,2.2292284 3.7613947,2.2106703 3.8202394,2.1926176 3.879672,2.1750678 3.9396873,2.1580183 4.0002802,2.1414668 4.0614453,2.1254108 4.1231775,2.1098477 4.1854716,2.094775 4.2483223,2.0801903 4.3117244,2.0660912 4.3756727,2.052475 4.440162,2.0393394 4.5051871,2.0266818 4.5707427,2.0144998 4.6368236,2.0027908 4.7034247,1.9915525 4.7705406,1.9807822 4.8381662,1.9704776 4.9062963,1.9606361 4.9749256,1.9512553 5.044049,1.9423327 5.1136611,1.9338657 5.1837569,1.9258519 5.254331,1.9182889 5.3253782,1.911174 5.3968934,1.904505 5.4688713,1.8982792 5.5413068,1.8924941 5.6141945,1.8871474 5.6875292,1.8822365 5.7613058,1.8777589 5.8355191,1.8737121 5.9101637,1.8700937 5.9852346,1.8669012 6.1366239,1.8618033 6.2896133,1.8584357 6.4441376,1.8567803 6.6001317,1.8568184 6.7575308,1.858531 6.9162699,1.8618992 7.076284,1.8669041 7.2375082,1.8735269 7.3998775,1.8817486 7.563327,1.8915504 7.7277918,1.9029134 7.8932069,1.9158186 8.0595074,1.9302472 8.2266282,1.9461804 8.3945045,1.9635992 8.5630713,1.9824847 8.7322637,2.002818 8.9020167,2.0245803 9.0722653,2.0477526 9.2429447,2.0723162 9.4139898,2.098252 9.5853358,2.1255412 9.7569176,2.1541649 9.9286704,2.1841042 10.1005291,2.2153402 10.2724288,2.2478541 10.4443047,2.281627 10.6160908,2.3166397 10.7876959,2.352865 10.9590523,2.390267 11.1301081,2.4288106 11.3008116,2.4684606 11.4711108,2.5091817 11.6409541,2.5509389 11.8102897,2.5936969 11.9790656,2.6374205 12.1472301,2.6820746 12.3147314,2.7276239 12.4815177,2.7740333 12.6475371,2.8212676 12.8127379,2.8692916 12.9770683,2.91807 13.1404765,2.9675678 13.3029105,3.0177496 13.4643188,3.0685804 13.6246493,3.120025 13.7838504,3.1720481 13.9418702,3.2246146 14.0986562,3.2776863 14.2541674,3.3312085 14.4083847,3.3851305 14.5612908,3.4394035 14.7128683,3.4939785 14.8630999,3.5488066 15.0119684,3.6038387 15.1594562,3.6590259 15.3055461,3.7143192 15.4502207,3.7696698 15.5934627,3.8250285 15.7352547,3.8803465 15.8755795,3.9355748 16.0144195,3.9906645 16.1517576,4.0455665 16.2875764,4.1002319 16.4218585,4.1546117 16.5545865,4.2086571 16.6857432,4.2623189 16.8153111,4.3155484 16.943273,4.3682964 17.0696115,4.420514 17.1943241,4.4721363 17.3174271,4.5231001 17.4389284,4.5733637 17.5588363,4.6228854 17.6771588,4.6716235 17.7939039,4.7195363 17.9090797,4.766582 18.0226942,4.8127191 18.1347556,4.8579058 18.2452718,4.9021004 18.3542511,4.9452611 18.4617013,4.9873463 18.5676306,5.0283143 18.6720471,5.0681234 18.7749587,5.1067318 18.8763737,5.1440979 18.9763,5.18018 19.0747457,5.2149363 19.1717188,5.2483252 19.2672275,5.2803049 19.3612771,5.3108329 19.4538698,5.3398749 19.5450376,5.3674219 19.6348161,5.3934671 19.7232409,5.4180037 19.8103476,5.4410248 19.896172,5.4625238 19.9807496,5.4824938 20.0641161,5.500928 20.146307,5.5178196 20.2273581,5.5331618 20.307305,5.5469479 20.3861833,5.559171 20.4640286,5.5698244 20.5408766,5.5789012 20.616763,5.5863947 20.6917232,5.592298 20.765796,5.5966062 20.8390908,5.5993541 20.9116986,5.6005623 20.9836855,5.6002364 21.055118,5.5983821 21.1260622,5.595005 21.1965845,5.5901107 21.2667511,5.5837049 21.3366284,5.5757931 21.4062825,5.5663811 21.4757798,5.5554744 21.5451866,5.5430788 21.6145691,5.5291997 21.6839936,5.5138429 21.7535265,5.4970139 21.8232339,5.4787185 21.8931822,5.4589622 21.9634376,5.4377507 22.0340665,5.4150896 22.1051351,5.3909845 22.1767045,5.3654328 22.2488013,5.3384186 22.3214488,5.3099752 22.3946717,5.2801405 22.4684943,5.2489524 22.5429413,5.2164488 22.6180372,5.1826677 22.6938064,5.1476469 22.7702737,5.1114244 22.8474634,5.0740382 22.9254002,5.0355261 23.0041086,4.9959261 23.083613,4.9552761 23.1639382,4.913614 23.2451085,4.8709778 23.3271485,4.8274053 23.4100828,4.7829345 23.4939359,4.7376034 23.5787323,4.6914498 23.6644966,4.6445117 23.7512555,4.5968389 23.8390298,4.5485193 23.9278206,4.4996103 24.0176273,4.4501658 24.1084499,4.4002398 24.2002879,4.3498864 24.293141,4.2991596 24.3870089,4.2481134 24.4818914,4.1968018 24.5777881,4.1452789 24.6746987,4.0935986 24.7726229,4.0418149 24.8715604,3.9899819 24.9715108,3.9381536 25.072474,3.886384 25.1744495,3.8347271 25.277437,3.783237 25.3814363,3.7319675 25.4864471,3.6809729 25.5924689,3.6303069 25.6995016,3.5800238 25.8075449,3.5301775 25.9165894,3.4808277 26.0266065,3.4320292 26.1375675,3.3838264 26.2494437,3.3362636 26.3622067,3.2893852 26.4758276,3.2432356 26.5902781,3.1978593 26.7055294,3.1533005 26.8215529,3.1096038 26.93832,3.0668135 27.0558021,3.0249739 27.1739706,2.9841296 27.2927968,2.9443248 27.4122522,2.905604 27.5323082,2.8680115 27.6529361,2.8315918 27.7741074,2.7963892 27.8957933,2.7624482 28.0179654,2.7298131 28.1405949,2.6985284 28.2636533,2.6686383 28.387112,2.6401874 28.510942,2.61322 28.6351002,2.5877832 28.7595369,2.5639103 28.8842062,2.5416294 29.0090622,2.5209688 29.1340591,2.5019568 29.2591511,2.4846215 29.3842922,2.4689912 29.5094367,2.4550941 29.6345386,2.4429584 29.7595521,2.4326123 29.8844314,2.4240841 30.0091305,2.417402 30.1336037,2.4125942 30.257805,2.4096889 30.3816887,2.4087144 30.5052088,2.4096988 30.6283195,2.4126704 30.7509749,2.4176574 30.8731292,2.424688 30.9947365,2.4337905 31.115751,2.4449931 31.2361268,2.458324 31.355818,2.4738114 31.4747784,2.4914838 31.5929528,2.5113681 31.7102836,2.5334725 31.7686152,2.5453586 31.826715,2.5578013 31.8845758,2.5708011 31.9421907,2.5843587 31.9995528,2.5984745 32.0566549,2.613149 32.1134902,2.6283829 32.1700515,2.6441766 32.226332,2.6605308 32.2823245,2.6774458 32.3380222,2.6949224 32.3934179,2.7129609 32.4485048,2.731562 32.5032757,2.7507261 32.5577237,2.7704539 32.6118417,2.7907458 32.6656229,2.8116025 32.7190601,2.8330243 32.7721464,2.8550119 32.8248748,2.8775659 32.8772383,2.9006867 32.9292298,2.9243748 32.9808424,2.9486309 33.0320691,2.9734554 33.0829028,2.998849 33.1333365,3.024812 33.1833634,3.0513452 33.2329763,3.0784489 33.2821682,3.1061238 33.3309322,3.1343704 33.3792612,3.1631892 33.4271483,3.1925808 33.4745865,3.2225456 33.5215686,3.2530843 33.5680879,3.2841974 33.6141371,3.3158854 33.6597094,3.3481488 33.7047977,3.3809883 33.7493879,3.4144041 33.7934685,3.4483935 33.8370331,3.4829519 33.8800755,3.5180751 33.9225894,3.5537587 33.9645685,3.5899985 34.0060065,3.6267901 34.0468971,3.6641291 34.087234,3.7020113 34.127011,3.7404323 34.1662217,3.7793878 34.2048598,3.8188734 34.2429192,3.8588849 34.2803934,3.8994179 34.3172761,3.940468 34.3535612,3.982031 34.3892423,4.0241025 34.424313,4.0666782 34.4587672,4.1097537 34.4925986,4.1533248 34.5258007,4.1973871 34.5583675,4.2419363 34.5902925,4.286968 34.6215694,4.3324779 34.6521921,4.3784618 34.6821541,4.4249152 34.7114492,4.4718338 34.7400712,4.5192133 34.7680137,4.5670494 34.7952704,4.6153378 34.821835,4.6640741 34.8477013,4.713254 34.872863,4.7628732 34.8973137,4.8129273 34.9210472,4.863412 34.9440572,4.914323 34.9663368,4.965654 34.9878776,5.0173863 35.0086783,5.0695112 35.0287388,5.1220225 35.0480591,5.1749141 35.0666391,5.2281799 35.0844787,5.2818138 35.1015778,5.3358097 35.1179363,5.3901615 35.1335542,5.444863 35.1484313,5.4999081 35.1625676,5.5552907 35.1759629,5.6110048 35.1886172,5.6670441 35.2005305,5.7234026 35.2117026,5.7800741 35.2221334,5.8370526 35.2318228,5.8943319 35.2407709,5.9519059 35.2489774,6.0097685 35.2564423,6.0679136 35.2631655,6.126335 35.269147,6.1850267 35.2743866,6.2439825 35.2788842,6.3031964 35.2826398,6.3626621 35.2856533,6.4223736 35.2879246,6.4823248 35.2894536,6.5425096 35.2902403,6.6029218 35.2902845,6.6635553 35.2895861,6.724404 35.2881451,6.7854618 35.2859614,6.8467226 35.2830349,6.9081803 35.2793656,6.9698287 35.2749532,7.0316618 35.2698002,7.0936736 35.2639145,7.1558601 35.2573004,7.2182175 35.2499623,7.2807419 35.2419044,7.3434296 35.2331309,7.4062769 35.2236461,7.46928 35.2134542,7.532435 35.2025595,7.5957383 35.1909662,7.6591861 35.1786786,7.7227745 35.1657009,7.7864999 35.1520373,7.8503584 35.1376922,7.9143462 35.1226697,7.9784597 35.1069741,8.0426951 35.0906096,8.1070484 35.0735805,8.1715161 35.0558911,8.2360943 35.0375455,8.3007793 35.0185481,8.3655673 34.9989031,8.4304544 34.9786146,8.495437 34.957687,8.5605113 34.9361246,8.6256735 34.9139315,8.6909198 34.891112,8.7562464 34.8676703,8.8216497 34.8436108,8.8871257 34.8189376,8.9526708 34.7936549,9.0182812 34.7677672,9.0839531 34.7412785,9.1496828 34.6865153,9.2813001 34.6293994,9.4131032 34.5699647,9.5450618 34.5082453,9.6771457 34.4442751,9.8093249 34.378088,9.941569 34.309718,10.0738481 34.2391992,10.2061318 34.1665654,10.33839 34.0918631,10.4705957 34.0151567,10.6027257 33.9364883,10.7347515 33.8558993,10.8666446 33.7734314,10.9983763 33.6891259,11.1299179 33.6030243,11.2612408 33.515168,11.3923163 33.4255985,11.5231159 33.3343574,11.6536107 33.241486,11.7837722 33.1470258,11.9135718 33.0510182,12.0429807 32.9535049,12.1719704 32.8545271,12.3005121 32.7541264,12.4285773 32.6523442,12.5561372 32.549222,12.6831633 32.4448013,12.8096268 32.3391235,12.9354992 32.2322301,13.0607517 32.1241626,13.1853558 32.0149623,13.3092827 31.9046709,13.4325038 31.7933297,13.5549905 31.6809802,13.6767142 31.5676638,13.7976461 31.4534222,13.9177576 31.3382999,14.0370197 31.2223507,14.1554026 31.1056017,14.2728814 30.9880757,14.3894316 30.8697959,14.5050289 30.7507852,14.6196488 30.6310666,14.7332669 30.5106633,14.8458587 30.3895981,14.9573999 30.2678941,15.067866 30.1455744,15.1772326 30.0226619,15.2854753 29.8991797,15.3925696 29.7751508,15.4984912 29.6505982,15.6032156 29.525545,15.7067184 29.4000141,15.8089752 29.2740286,15.9099615 29.1476115,16.0096529 29.0207858,16.1080251 28.8935746,16.2050535 28.7660008,16.3007139 28.6380832,16.3949821 28.5098191,16.4878377 28.3811996,16.5792614 28.252216,16.669234 28.1228595,16.7577362 27.9931214,16.8447489 27.8629929,16.9302529 27.7324652,17.0142288 27.6015298,17.0966575 27.4701777,17.1775198 27.3384002,17.2567964 27.2061887,17.3344682 27.0735343,17.4105158 26.9404283,17.4849202 26.806862,17.5576619 26.6728265,17.628722 26.5383133,17.698081 26.4033134,17.7657199 26.2678182,17.8316193 26.131819,17.8957601 25.9953069,17.958123 25.8582732,18.0186889 25.7207093,18.0774384 25.5826062,18.1343524 25.4439554,18.1894117 25.3047332,18.2425906 25.1648972,18.2938622 25.0244341,18.3432192 24.8833318,18.3906547 24.7415781,18.4361618 24.5991608,18.4797336 24.4560679,18.5213633 24.3122872,18.5610438 24.1678064,18.5987685 24.0226136,18.6345303 23.8766965,18.6683224 23.730043,18.7001379 23.5826409,18.72997 23.4344781,18.7578117 23.2855425,18.7836561 23.1358219,18.8074964 22.9853041,18.8293258 22.8339771,18.8491372 22.6818286,18.8669239 22.5288466,18.8826789 22.3750188,18.8963954 22.2203331,18.9080664 22.0647775,18.9176852 21.9083396,18.9252447 21.7510067,18.9307391 21.5927574,18.9341817 21.433588,18.9355855 21.2735007,18.9349587 21.1124979,18.93231 20.9505817,18.9276478 20.7877544,18.9209805 20.6240184,18.9123166 20.4593759,18.9016646 20.2938291,18.8890328 20.1273804,18.8744298 19.960032,18.857864 19.7917861,18.8393438 19.6226451,18.8188778 19.4526112,18.7964744 19.2816867,18.7721419 19.1098738,18.745889 18.9371748,18.7177239 18.763592,18.6876553 18.5891277,18.6556915 18.4137841,18.621841 18.2375576,18.5861135 18.0604558,18.548525 17.8825179,18.509093 17.7037838,18.467835 17.5242933,18.4247687 17.3440864,18.3799115 17.163203,18.3332808 16.9816831,18.2848944 16.7995665,18.2347696 16.6168933,18.182924 16.4337032,18.129375 16.2500363,18.0741404 16.0659324,18.0172374 15.8814314,17.9586838 15.6965734,17.8984969 15.5113982,17.8366943 15.3259458,17.7732936 15.140256,17.7083122 14.9543687,17.6417677 14.768324,17.5736776 14.5821779,17.5040596 14.3960127,17.4329372 14.2099064,17.3603369 14.0239367,17.2862852 13.8381815,17.2108087 13.6527186,17.133934 13.467626,17.0556874 13.2829813,16.9760956 13.0988625,16.895185 12.9153474,16.8129822 12.7325138,16.7295137 12.5504396,16.6448061 12.3692027,16.5588858 12.1888808,16.4717793 12.0095518,16.3835132 11.8312935,16.2941141 11.6541838,16.2036083 11.4783006,16.1120225 11.3037216,16.0193832 11.1305247,15.9257169 10.9587877,15.8310501 10.7885885,15.7354093 10.620005,15.6388211 10.4531149,15.5413119 10.2879961,15.4429084 10.1247606,15.3436526 9.9635183,15.2435863 9.8043438,15.1427355 9.6473118,15.041126 9.492497,14.9387838 9.4159444,14.887346 9.3399741,14.8357348 9.2645954,14.7839533 9.1898178,14.7320048 9.1156504,14.6798925 9.0421027,14.6276198 8.969184,14.5751897 8.8969036,14.5226057 8.8252708,14.4698708 8.7542951,14.4169883 8.6839857,14.3639616 8.6143519,14.3107938 8.5454032,14.2574881 8.4771488,14.2040478 8.4095981,14.1504761 8.3427603,14.0967763 8.276645,14.0429517 8.2112613,13.9890054 8.1466186,13.9349406 8.0827262,13.8807607 8.0195936,13.8264689 7.95723,13.7720683 7.8956447,13.7175623 7.8348472,13.6629541 7.7748466,13.6082469 7.7156525,13.553444 7.657274,13.4985486 7.5997206,13.4435639 7.5430015,13.3884931 7.4871262,13.3333396 7.4321039,13.2781066 7.377944,13.2227972 7.3246558,13.1674148 7.2722486,13.1119625 7.2207319,13.0564436 7.1701148,13.0008614 7.1204033,12.9452175 7.0715939,12.8895083 7.023694,12.833735 6.9767123,12.777899 6.9306576,12.7220017 6.8855385,12.6660447 6.8413637,12.6100294 6.7981419,12.5539572 6.7558817,12.4978297 6.7145918,12.4416483 6.6742809,12.3854145 6.6349577,12.3291297 6.5966308,12.2727955 6.559309,12.2164133 6.5230008,12.1599845 6.487715,12.1035107 6.4534603,12.0469933 6.4202453,11.9904338 6.3880787,11.9338337 6.3569691,11.8771943 6.3269253,11.8205173 6.2979559,11.763804 6.2700697,11.707056 6.2432752,11.6502747 6.2175812,11.5934615 6.1929963,11.536618 6.1695292,11.4797456 6.1471885,11.4228458 6.1259831,11.3659201 6.1059232,11.3089682 6.0870393,11.2519738 6.0693458,11.1949437 6.0528504,11.1378921 6.0375609,11.0808329 6.0234851,11.0237804 6.0106308,10.9667487 5.9990057,10.9097517 5.9886177,10.8528038 5.9794745,10.7959189 5.971584,10.7391112 5.9649538,10.6823947 5.9595918,10.6257837 5.9555058,10.5692921 5.9527035,10.5129341 5.9511928,10.4567239 5.9509813,10.4006754 5.952077,10.3448029 5.9544875,10.2891204 5.9582207,10.233642 5.9632843,10.1783819 5.9696862,10.1233541 5.9774341,10.0685727 5.9865357,10.014052 5.9969949,9.9598392 6.0087999,9.9059904 6.0219356,9.8525185 6.0363871,9.7994366 6.0521392,9.7467577 6.0691771,9.6944948 6.0874856,9.6426608 6.1070497,9.5912688 6.1278544,9.5403318 6.1498846,9.4898627 6.1731253,9.4398746 6.1975616,9.3903804 6.2231782,9.3413932 6.2499603,9.2929259 6.2778928,9.2449915 6.3069607,9.1976031 6.3371488,9.1507735 6.3684423,9.1045159 6.400826,9.0588432 6.4342849,9.0137683 6.4688041,8.9693044 6.5043684,8.9254643 6.5409628,8.8822611 6.5785723,8.8397078 6.6171708,8.797805 6.6567192,8.7565297 6.6972049,8.7158806 6.738616,8.6758571 6.7809409,8.6364588 6.8241679,8.5976852 6.8682853,8.559536 6.9132815,8.5220105 6.9591447,8.4851083 7.0058633,8.4488291 7.0534255,8.4131722 7.1018197,8.3781374 7.1510342,8.343724 7.2010572,8.3099316 7.2518771,8.2767599 7.3034823,8.2442082 7.3558609,8.2122762 7.4090014,8.1809633 7.462892,8.1502692 7.5175211,8.1201934 7.5728768,8.0907353 7.6289477,8.0618946 7.6857219,8.0336707 7.7431878,8.0060633 7.8013337,7.9790718 7.8601478,7.9526958 7.9196186,7.9269348 7.9797343,7.9017884 8.0404832,7.8772561 8.1018536,7.8533374 8.1638339,7.8300319 8.2264123,7.8073391 8.2895772,7.7852586 8.3533168,7.7637898 8.4176195,7.7429324 8.4824736,7.7226858 8.5478674,7.7030497 8.6137892,7.6840235 8.6802273,7.6656067 8.74717,7.647799 8.8146057,7.6305998 8.8825226,7.6140088 8.9509113,7.5980291 9.0197666,7.5826696 9.0890777,7.5679294 9.1588333,7.5538066 9.2290225,7.5402997 9.2996341,7.5274069 9.370657,7.5151267 9.4420801,7.5034574 9.5138922,7.4923973 9.5860822,7.4819448 9.658639,7.4720982 9.7315516,7.4628558 9.8048087,7.4542161 9.8783993,7.4461773 9.9523123,7.4387378 10.0265365,7.4318959 10.1010608,7.42565 10.1758741,7.4199985 10.2509653,7.4149396 10.3263233,7.4104717 10.4019369,7.4065932 10.477795,7.4033024 10.5538866,7.4005977 10.6302005,7.3984773 10.7067256,7.3969397 10.7834507,7.3959832 10.8603648,7.3956061 11.0147153,7.3965835 11.1696883,7.3998588 11.3251948,7.4054187 11.4811458,7.41325 11.6374524,7.4233394 11.7940257,7.4356737 11.9507692,7.4502397 12.1075821,7.4670025 12.2643971,7.4859042 12.4211486,7.5068857 12.5777712,7.5298881 12.7341993,7.5548527 12.8903675,7.5817205 13.0462102,7.6104325 13.201662,7.64093 13.3566572,7.6731541 13.5111304,7.7070458 13.6650162,7.7425462 13.8182489,7.7795966 13.9707632,7.8181379 14.1224934,7.8581113 14.273374,7.899458 14.4233396,7.942119 14.5723247,7.9860354 14.720267,8.031126 14.8671297,8.0772861 15.0128866,8.1244257 15.1575111,8.1724547 15.3009769,8.2212831 15.4432575,8.2708207 15.5843265,8.3209777 15.7241576,8.3716639 15.8627242,8.4227892 16,8.4742637 16,8.5 16.0678729,8.5 16.0678729,8.5 16.1855045,8.5450249 16.3021144,8.5901524 16.4176852,8.6353236 16.5321995,8.6804794 16.6456401,8.7255606 16.7579897,8.7705082 16.8692308,8.8152632 16.9793462,8.8597664 17.0883185,8.9039589 17.1961304,8.9477815 17.3027646,8.9911752 17.408204,9.0340803 17.5124494,9.0764104 17.6155063,9.1180979 17.717374,9.1590937 17.8180517,9.1993487 17.9175385,9.238814 18.0158336,9.2774405 18.1129363,9.3151791 18.2088458,9.3519808 18.3035612,9.3877965 18.3970817,9.4225772 18.4894065,9.456274 18.5805348,9.4888376 18.6704658,9.5202191 18.7591987,9.5503694 18.8467327,9.5792395 18.933067,9.6067803 19.0182008,9.6329429 19.1021332,9.657678 19.1848635,9.6809368 19.2663797,9.7026734 19.3466621,9.722868 19.4257436,9.7415117 19.5036608,9.7585957 19.5804503,9.7741111 19.6561486,9.7880491 19.7307923,9.8004007 19.8044178,9.8111571 19.8770617,9.8203094 19.9487606,9.8278487 20.019551,9.8337662 20.0894694,9.838053 20.1585524,9.8407002 20.2268365,9.841699 20.2943582,9.8410404 20.3611542,9.8387156 20.4272768,9.8347197 20.4928898,9.8290711 20.5580816,9.8217633 20.6229183,9.8127837 20.6874658,9.8021195 20.7517902,9.7897582 20.8159578,9.7756871 20.8800344,9.7598937 20.9440863,9.7423652 21.0081795,9.723089 21.0723802,9.7020525 21.1367542,9.6792432 21.2013679,9.6546482 21.2662872,9.6282551 21.3315782,9.6000511 21.3973071,9.5700237 21.4635398,9.5381602 21.5303426,9.504448 21.5977481,9.4688552 21.6657535,9.4313774 21.7343799,9.3920522 21.8036485,9.3509172 21.8735807,9.30801 21.9441975,9.2633683 22.0155202,9.2170297 22.0875701,9.1690317 22.1603684,9.1194121 22.2339363,9.0682085 22.308295,9.0154584 22.3834657,8.9611995 22.4594698,8.9054694 22.5363283,8.8483057 22.6140626,8.7897461 22.6926938,8.7298282 22.7722432,8.6685895 22.8527321,8.6060678 22.9341894,8.5423165 23.0166417,8.4774235 23.1000916,8.4114616 23.184541,8.3445024 23.269992,8.2766181 23.3564466,8.2078804 23.4439068,8.1383612 23.5323746,8.0681324 23.6218519,7.997266 23.7123408,7.9258337 23.8038432,7.8539076 23.8963612,7.7815594 23.9898969,7.708861 24.084452,7.6358844 24.1800288,7.5627015 24.2766291,7.489384 24.374255,7.416004 24.4729084,7.3426332 24.5725914,7.2693437 24.673306,7.1962072 24.7750542,7.1232957 24.8778385,7.0506895 24.9816326,6.9784769 25.0863952,6.9067418 25.1920851,6.8355683 25.2986613,6.7650404 25.4060825,6.6952422 25.5143076,6.6262577 25.6232953,6.5581709 25.7330045,6.4910657 25.843394,6.4250263 25.9544226,6.3601367 26.0660492,6.2964809 26.1782326,6.2341428 26.2909316,6.1732066 26.404105,6.1137563 26.5177116,6.0558758 26.6317104,5.9996492 26.74606,5.9451606 26.8607078,5.8924914 26.9755445,5.8417172 27.0904908,5.792928 27.2054731,5.7462156 27.320418,5.701672 27.4352523,5.6593888 27.492605,5.6391237 27.5499025,5.6194581 27.6071356,5.6004036 27.6642952,5.5819716 27.7213721,5.5641736 27.7783571,5.5470211 27.835241,5.5305256 27.8920147,5.5146986 27.9486689,5.4995515 28.0051946,5.4850958 28.0615825,5.471343 28.1178235,5.4583046 28.1739084,5.4459921 28.229828,5.4344169 28.2855732,5.4235905 28.3411347,5.4135244 28.3965034,5.4042301 28.4516701,5.3957191 28.5066258,5.3880028 28.561361,5.3810928 28.6158668,5.3750004 28.6701339,5.3697372 28.7241532,5.3653147 28.7779155,5.3617444 28.8314115,5.3590377 28.8846359,5.3572069 28.9376061,5.3562733 28.990312,5.3562585 29.0427364,5.3571831 29.0948623,5.3590674 29.1466724,5.3619322 29.1981497,5.365798 29.2492769,5.3706852 29.3000371,5.3766145 29.350413,5.3836064 29.4003875,5.3916815 29.4499434,5.4008602 29.4990637,5.4111631 29.5477312,5.4226108 29.5959287,5.4352239 29.6436392,5.4490228 29.6908454,5.4640281 29.7375303,5.4802604 29.7836767,5.4977402 29.829267,5.5164889 29.8742423,5.5365738 29.9185413,5.5580142 29.9621209,5.5807915 30.004938,5.6048869 30.0469494,5.6302819 30.0881121,5.6569577 30.128383,5.6848958 30.1677188,5.7140774 30.2060767,5.744484 30.2434134,5.7760969 30.2796858,5.8088974 30.3148509,5.8428669 30.3488655,5.8779867 30.3816865,5.9142382 30.4132709,5.9516028 30.4435755,5.9900617 30.4725524,6.0295679 30.5001639,6.0699875 30.5264183,6.1112747 30.5513265,6.1533938 30.5748997,6.1963089 30.5971489,6.2399841 30.6180852,6.2843836 30.6377197,6.3294716 30.6560634,6.3752123 30.6731275,6.4215697 30.688923,6.4685081 30.703461,6.5159916 30.7167526,6.5639844 30.7288089,6.6124506 30.7396409,6.6613544 30.7492597,6.71066 30.7576764,6.7603316 30.7649022,6.8103332 30.770948,6.860629 30.775833,6.9111901 30.779614,6.9620255 30.782313,7.0131232 30.7839453,7.0644667 30.7845261,7.1160392 30.784071,7.1678239 30.7825951,7.2198041 30.7801138,7.2719631 30.7766424,7.324284 30.7721964,7.3767503 30.766791,7.4293451 30.7604415,7.4820517 30.7531633,7.5348533 30.7449718,7.5877332 30.7358822,7.6406748 30.7259099,7.6936611 30.7150702,7.7466756 30.7033785,7.7997014 30.6908501,7.8527218 30.6775003,7.9057201 30.6633445,7.9586795 30.648398,8.0115833 30.6326762,8.0644148 30.6161943,8.1171571 30.5989677,8.1697937 30.5810118,8.2223077 30.5623418,8.2746823 30.5429731,8.3269009 30.5229211,8.3789468 30.5022011,8.4308031 30.4808284,8.4824531 30.4588171,8.5338759 30.4361752,8.5850378 30.4129149,8.6359281 30.3890494,8.6865393 30.3645917,8.7368636 30.3395547,8.7868934 30.3139516,8.8366211 30.2877952,8.886039 30.2610988,8.9351394 30.2338752,8.9839147 30.2061376,9.0323573 30.1491722,9.1282137 30.0903068,9.2226472 30.0296456,9.3155968 29.9672929,9.4070012 29.9033529,9.4967993 29.8379298,9.5849298 29.7711278,9.6713315 29.7030512,9.7559432 29.63381,9.8387243 29.5635141,9.9197155 29.4922527,9.9989606 29.4201141,10.0765024 29.3471868,10.1523838 29.2735592,10.2266475 29.1993197,10.2993365 29.1245567,10.3704933 29.0493587,10.440161 28.973814,10.5083823 28.8980111,10.5752001 28.8220385,10.640657 28.7459844,10.704796 28.6699374,10.7676598 28.5939859,10.8292914 28.5182182,10.8897334 28.4427229,10.9490287 28.3675883,11.0072201 28.2929229,11.0643863 28.2187997,11.1206191 28.1452607,11.1759889 28.0723481,11.2305658 28.0001037,11.2844203 27.9285695,11.3376225 27.8577877,11.3902427 27.7878002,11.4423512 27.718649,11.4940182 27.6503761,11.545314 27.5830236,11.5963088 27.5166333,11.647073 27.4512475,11.6976767 27.386908,11.7481903 27.3236569,11.798684 27.2615362,11.849228 27.200551,11.899921 27.1406624,11.9508431 27.0818426,12.0020408 27.0240639,12.0535607 26.9672987,12.1054494 26.9115191,12.1577535 26.8566975,12.2105195 26.8028061,12.2637941 26.7498174,12.3176238 26.6977035,12.3720552 26.6464368,12.4271349 26.5959896,12.4829096 26.5463342,12.5394256 26.4974428,12.5967298 26.4492877,12.6548685 26.4018413,12.7138885 26.3550758,12.7738365 26.3089481,12.8347623 26.2634083,12.8966642 26.2184114,12.9595201 26.1739125,13.0233082 26.1298669,13.0880063 26.0862295,13.1535925 26.0429555,13.2200449 26,13.2873414 26,13 25.5,13 25.5,14 25.5791224,14 25.5791224,14 25.5293548,14.0878896 25.4792142,14.1763574 25.4286042,14.265298 25.3774283,14.3546055 25.3255901,14.4441744 25.2729933,14.533899 25.2195414,14.6236738 25.1651381,14.713393 25.1096869,14.802951 25.0530914,14.8922423 24.9952552,14.9811611 24.9360819,15.0696018 24.875475,15.1574588 24.8133383,15.2446264 24.7495753,15.3309991 24.6840544,15.4164502 24.6166363,15.5008189 24.5472801,15.5839778 24.5118635,15.6250643 24.4759482,15.6658011 24.4395294,15.7061725 24.4026025,15.7461628 24.3651627,15.7857562 24.3272053,15.8249369 24.2887255,15.8636893 24.2497187,15.9019975 24.2101801,15.9398459 24.170105,15.9772187 24.1294886,16.0141002 24.0883262,16.0504745 24.0466131,16.086326 24.0043445,16.121639 23.9615158,16.1563976 23.9181222,16.1905862 23.8741589,16.2241889 23.8296213,16.2571901 23.7845045,16.289574 23.738804,16.3213249 23.6925149,16.352427 23.6456429,16.3828562 23.5982061,16.4125924 23.5502127,16.4416319 23.5016709,16.4699712 23.4525892,16.4976068 23.4029758,16.5245349 23.3528389,16.5507522 23.3021868,16.5762549 23.2510279,16.6010397 23.1993704,16.6251028 23.1472226,16.6484407 23.0945928,16.6710498 23.0414893,16.6929267 22.9879203,16.7140677 22.9338942,16.7344692 22.8794191,16.7541277 22.8245035,16.7730397 22.7691556,16.7912015 22.7133836,16.8086096 22.6571959,16.8252605 22.6006008,16.8411505 22.5436064,16.8562761 22.4862212,16.8706337 22.4284534,16.8842198 22.3703112,16.8970308 22.311803,16.9090631 22.2529371,16.9203132 22.1937218,16.930781 22.1341666,16.9404812 22.0742818,16.949421 22.0140775,16.9576063 21.9535642,16.9650427 21.892752,16.9717362 21.8316511,16.9776924 21.7702718,16.9829171 21.7086244,16.9874161 21.646719,16.9911952 21.584566,16.9942601 21.5221756,16.9966167 21.4595581,16.9982707 21.3967236,16.9992278 21.3336825,16.999494 21.270445,16.9990748 21.2070213,16.9979762 21.1434216,16.9962039 21.0796563,16.9937637 21.0157356,16.9906613 20.9516697,16.9869025 20.8874689,16.9824931 20.8231433,16.9774389 20.7587034,16.9717457 20.6941592,16.9654192 20.6295211,16.9584652 20.5647994,16.9508895 20.5000041,16.9426978 20.4351457,16.933896 20.3702343,16.9244898 20.2402937,16.9038873 20.1102643,16.8809367 19.980228,16.855684 19.8502668,16.8281756 19.7204628,16.7984576 19.5908978,16.7665762 19.4616539,16.7325777 19.3328256,16.6965195 19.2045473,16.6584939 19.07691,16.6185521 18.949999,16.5767405 18.8238999,16.5331053 18.698698,16.4876928 18.5744787,16.4405493 18.4513275,16.391721 18.3293297,16.3412543 18.2085709,16.2891954 18.0891365,16.2355906 17.9711118,16.1804862 17.8545823,16.1239285 17.7396335,16.0659638 17.6263506,16.0066383 17.5148193,15.9459983 17.4051248,15.8840901 17.2973527,15.8209601 17.1915883,15.7566544 17.087903,15.6912269 17.0368534,15.6581055 16.9863424,15.6247132 16.9363772,15.5910505 16.8869652,15.5571178 16.8381138,15.5229157 16.7898305,15.4884447 16.7421227,15.4537053 16.6949976,15.4186979 16.6484627,15.3834231 16.6025255,15.3478815 16.5571932,15.3120734 16.5124733,15.2759994 16.4683731,15.23966 16.4249002,15.2030558 16.3820617,15.1661871 16.3398653,15.1290545 16.2983181,15.0916586 16.2574277,15.0539997 16.2172014,15.0160785 16.1776466,14.9778954 16.1387707,14.9394509 16.1005811,14.9007456 16.0630852,14.8617799 16.0262903,14.8225543 15.990204,14.7830693 15.9548334,14.7433255 15.9201862,14.7033233 15.8862695,14.6630633 15.8530909,14.6225459 15.8206578,14.5817717 15.7889774,14.5407411 15.7580572,14.4994547 15.7279047,14.457913 15.6985271,14.4161164 15.6699319,14.3740654 15.6421264,14.3317607 15.6151182,14.2892026 15.5889145,14.2463917 15.5635227,14.2033284 15.5389502,14.1600134 15.5152045,14.116447 15.4922929,14.0726298 15.4702228,14.0285623 15.449015,13.9842375 15.4286993,13.9396475 15.409281,13.8948015 15.3907652,13.8497089 15.3731567,13.8043792 15.3564606,13.7588217 15.3406818,13.7130459 15.3258253,13.6670612 15.3118959,13.620877 15.2988987,13.5745027 15.2868386,13.5279478 15.2757206,13.4812217 15.2655495,13.4343338 15.2563305,13.3872935 15.2480684,13.3401102 15.2407682,13.2927934 15.2344348,13.2453525 15.2290732,13.1977969 15.2246883,13.150136 15.2212852,13.1023793 15.2188687,13.0545361 15.2174438,13.006616 15.2170155,12.9586282 15.2175886,12.9105823 15.2191683,12.8624876 15.2217594,12.8143536 15.2253666,12.7661898 15.229973,12.7180209 15.2355605,12.6698624 15.242123,12.6217185 15.2496541,12.5735935 15.2581476,12.5254917 15.2675972,12.4774172 15.2779966,12.4293743 15.2893394,12.3813673 15.3016195,12.3334004 15.3148305,12.2854777 15.3289661,12.2376037 15.34402,12.1897824 15.3599859,12.1420182 15.3768577,12.0943152 15.3946288,12.0466778 15.4132932,11.9991101 15.4328444,11.9516164 15.4532761,11.904201 A0.4,0.4 203.7748412 1,1 16.1853856,12.2267158 L16.1853856,12.2267158 16.1633708,12.2782623 16.1429657,12.3292885 16.1241538,12.3798139 16.1069187,12.4298583 16.0912437,12.4794411 16.0771124,12.5285821 16.0645083,12.5773007 16.0534149,12.6256167 16.0438156,12.6735495 16.035694,12.7211189 16.0290335,12.7683444 16.0238177,12.8152456 16.0200299,12.8618422 16.0176538,12.9081537 16.0166727,12.9541998 16.0170703,13 16,13 16,14 16.3843885,14 16.3843885,14 16.4057685,14.0291731 16.4277952,14.0583671 16.4504649,14.0875768 16.4737741,14.1167974 16.4977191,14.1460238 16.5222963,14.1752511 16.547502,14.2044743 16.5733327,14.2336885 16.5997848,14.2628886 16.6268546,14.2920697 16.6545385,14.3212269 16.682833,14.3503551 16.7117343,14.3794494 16.7412388,14.4085049 16.8020433,14.4664792 16.8652174,14.5242382 16.9307322,14.5817423 16.9985588,14.6389517 17.0686682,14.6958265 17.1410315,14.752327 17.2156199,14.8084134 17.2924042,14.8640459 17.3713519,14.9191833 17.4523892,14.9737718 17.5354363,15.0277638 17.6204164,15.0811134 17.7072529,15.133775 17.795869,15.1857027 17.8861879,15.2368508 17.9781331,15.2871735 18.0716277,15.3366251 18.1665951,15.3851597 18.2629585,15.4327317 18.3606412,15.4792952 18.4595664,15.5248046 18.5596576,15.569214 18.6608379,15.6124776 18.7630306,15.6545498 18.8661591,15.6953847 18.9701465,15.7349366 19.0749162,15.7731598 19.1803759,15.809997 19.2864002,15.8453771 19.3929031,15.8792674 19.4998009,15.9116375 19.6070102,15.9424571 19.7144474,15.9716956 19.8220291,15.9993227 19.9296718,16.0253081 20.0372919,16.0496213 20.144806,16.0722318 20.2521305,16.0931095 20.359182,16.1122237 20.4658769,16.1295442 20.5721317,16.1450405 20.677863,16.1586822 20.7829872,16.170439 20.8874209,16.1802805 20.9910805,16.1881761 21.0938825,16.1940956 21.1957434,16.1980086 21.2965797,16.1998846 21.3962938,16.1997069 21.4948055,16.1974911 21.5920822,16.1932455 21.6880916,16.186978 21.735611,16.1830886 21.7828016,16.1786968 21.8296593,16.1738035 21.8761801,16.1684097 21.92236,16.1625164 21.968195,16.1561247 22.013681,16.1492355 22.0588141,16.1418498 22.1035903,16.1339686 22.1480054,16.1255929 22.1920556,16.1167238 22.2357368,16.1073622 22.2790449,16.0975091 22.321976,16.0871654 22.364526,16.0763323 22.406691,16.0650107 22.4484669,16.0532016 22.4898496,16.040906 22.5308353,16.0281249 22.5714198,16.0148592 22.6115992,16.0011101 22.6513694,15.9868784 22.6907265,15.9721652 22.7296727,15.9569731 22.7682207,15.9413066 22.8063751,15.9251674 22.8441404,15.9085574 22.8815212,15.8914785 22.9551469,15.8559209 23.0272884,15.8185092 23.0979814,15.7792579 23.1672622,15.7381815 23.2351665,15.6952946 23.3017304,15.6506116 23.3669899,15.604147 23.430981,15.5559155 23.4937396,15.5059315 23.5553017,15.4542095 23.6157034,15.4007641 23.6749805,15.3456098 23.7331691,15.2887611 23.7903052,15.2302325 23.8464239,15.1700376 23.90155,15.1081882 23.9557264,15.0447412 24.0090027,14.9797648 24.0614289,14.9133275 24.1130545,14.8454975 24.1639295,14.776343 24.2141035,14.7059326 24.2636263,14.6343343 24.3125477,14.5616166 24.3609174,14.4878477 24.4087852,14.413096 24.4562008,14.3374297 24.503214,14.2609172 24.5498746,14.1836268 24.5962323,14.1056267 24.6423369,14.0269854 24.7339858,13.8680519 24.825399,13.7075318 24.9172058,13.5461064 25.0098821,13.3842875 25.103904,13.2225865 25.1997476,13.0615151 25.2485012,12.9813754 25.2978888,12.9015849 25.3479698,12.8222077 25.3988037,12.7433076 25.4504501,12.6649486 25.5029684,12.5871947 25.5564182,12.5101099 25.610859,12.4337579 25.6663502,12.3582029 25.7229511,12.283511 25.780696,12.2097574 25.8395707,12.1369557 25.8995561,12.0651044 25.960633,11.9942025 26.0227822,11.9242485 26.0859845,11.8552411 26.1502209,11.7871791 26.2154719,11.7200612 26.2817186,11.6538861 26.3489417,11.5886525 26.417122,11.524359 26.4862403,11.4610045 26.5562775,11.3985876 26.6272122,11.3371052 26.6989635,11.2764898 26.7714558,11.2166421 26.8446323,11.157473 26.9184362,11.0988933 26.992811,11.0408141 27.0676997,10.9831462 27.2187923,10.8686883 27.37126,10.7548071 27.524649,10.64079 27.6785052,10.5259246 27.8323749,10.4094982 27.9091729,10.3504767 27.9857993,10.2907573 28.06218,10.2302537 28.138239,10.1689186 28.2139004,10.1067049 28.2890882,10.0435652 28.3637262,9.9794523 28.4377386,9.9143189 28.5110494,9.8481177 28.5835824,9.7808015 28.6552618,9.712323 28.7260115,9.642635 28.7957555,9.5716902 28.8644178,9.4994413 28.9319224,9.4258411 28.9981933,9.3508423 29.0631544,9.2743976 29.12673,9.1964596 29.1888557,9.1169595 29.2494454,9.0359297 29.3083961,8.9534578 29.3656049,8.8696317 29.4209686,8.7845391 29.4743844,8.698268 29.5257491,8.610906 29.5506302,8.5668434 29.5749599,8.522541 29.5987253,8.4780098 29.6219136,8.4332608 29.6445119,8.388305 29.6665073,8.3431533 29.6878869,8.2978167 29.7086379,8.2523061 29.7287473,8.2066327 29.7481771,8.1608296 29.766899,8.1149404 29.7849055,8.0689986 29.8021886,8.0230377 29.8187408,7.9770912 29.8345543,7.9311926 29.8496214,7.8853752 29.8639343,7.8396726 29.8774853,7.7941182 29.8902668,7.7487455 29.9022709,7.703588 29.91349,7.6586791 29.9239163,7.6140522 29.9335421,7.5697409 29.9423597,7.5257787 29.9503614,7.4821989 29.9575394,7.439035 29.9638861,7.3963206 29.9693937,7.354089 29.9740544,7.3123738 29.9778606,7.2712084 29.9808045,7.2306262 29.9828784,7.1906608 29.9840747,7.1513456 29.9843945,7.112733 29.9838676,7.0748963 29.982513,7.0378495 29.9803489,7.0016034 29.9773935,6.966169 29.973665,6.931557 29.9691815,6.8977785 29.9639612,6.8648441 29.9580223,6.8327649 29.951383,6.8015517 29.9440614,6.7712153 29.9360757,6.7417667 29.9274441,6.7132167 29.9181847,6.6855761 29.9083157,6.6588559 29.8978553,6.6330669 29.8868217,6.6082201 29.875233,6.5843261 29.8631357,6.5613445 29.8505703,6.53918 29.8375128,6.5178076 29.8239383,6.497203 29.8098221,6.4773421 29.7951393,6.4582008 29.7798652,6.4397551 29.7639748,6.4219808 29.7474434,6.4048538 29.7302462,6.3883499 29.7123584,6.3724452 29.693755,6.3571155 29.6744114,6.3423366 29.6543027,6.3280845 29.633404,6.3143351 29.6116906,6.3010642 29.5891377,6.2882477 29.5657053,6.2758718 29.5412811,6.2639938 29.5158515,6.2526409 29.4894225,6.24183 29.462,6.2315781 29.4335898,6.2219019 29.4041978,6.2128185 29.37383,6.2043447 29.3424922,6.1964975 29.3101904,6.1892937 29.2769303,6.1827502 29.242718,6.176884 29.2075592,6.171712 29.1714599,6.167251 29.1344261,6.163518 29.0964635,6.1605299 29.057578,6.1583036 29.0177757,6.1568559 28.9770623,6.1562039 28.935485,6.1563675 28.8931061,6.1573533 28.8499495,6.1591565 28.8060388,6.1617726 28.7613977,6.165197 28.7160499,6.1694251 28.6700191,6.1744523 28.6233291,6.180274 28.5760034,6.1868856 28.5280658,6.1942825 28.4795401,6.2024601 28.4304498,6.2114139 28.3808187,6.2211391 28.3306706,6.2316313 28.2800291,6.2428857 28.2289178,6.2548979 28.1773606,6.2676633 28.1253811,6.2811771 28.0730029,6.2954349 28.0202499,6.310432 27.9671457,6.3261639 27.913714,6.3426259 27.8599785,6.3598134 27.8059629,6.3777219 27.7516946,6.396338 27.6971968,6.4156387 27.6424827,6.4356119 27.5875655,6.4562454 27.5324582,6.477527 27.4771739,6.4994447 27.4217257,6.5219863 27.3661266,6.5451398 27.3103898,6.568893 27.1985554,6.6181501 27.086327,6.6696606 26.9738094,6.7233278 26.8611073,6.7790546 26.7483254,6.8367442 26.6355684,6.8962996 26.5229409,6.9576239 26.4105478,7.0206201 26.2984936,7.0851915 26.1868831,7.151241 26.0758154,7.2186648 25.9653395,7.2873446 25.8554801,7.3571875 25.7462616,7.4281029 25.6377084,7.5 25.5,7.5 25.5,7.5931593z" transform="matrix(1,0,0,-1,0,27.0002827)" fill="rgb(101,101,101)" fill-rule="nonzero" shaper:cutDepth="0.0001" stroke-linecap="round" stroke-linejoin="round" /><path d="M22.1000003,19.2000003 a0.1,0.1 0 1,1 0.2,0 a0.1,0.1 0 1,1 -0.2,0z" transform="matrix(1,0,0,-1,0,27.0002827)" fill="rgb(255,255,255)" stroke="rgb(0,0,0)" stroke-width="0.0010cm" stroke-linecap="round" stroke-linejoin="round" shaper:cutDepth="0.008" /><path d="M22.1000003,14.8000002 a0.1,0.1 0 1,1 0.2,0 a0.1,0.1 0 1,1 -0.2,0z" transform="matrix(1,0,0,-1,0,27.0002827)" fill="rgb(255,255,255)" stroke="rgb(0,0,0)" stroke-width="0.0010cm" stroke-linecap="round" stroke-linejoin="round" shaper:cutDepth="0.008" /><path d="M19.7000003,19.2000003 a0.1,0.1 0 1,1 0.2,0 a0.1,0.1 0 1,1 -0.2,0z" transform="matrix(1,0,0,-1,0,27.0002827)" fill="rgb(255,255,255)" stroke="rgb(0,0,0)" stroke-width="0.0010cm" stroke-linecap="round" stroke-linejoin="round" shaper:cutDepth="0.008" /><path d="M19.7000003,14.8000002 a0.1,0.1 0 1,1 0.2,0 a0.1,0.1 0 1,1 -0.2,0z" transform="matrix(1,0,0,-1,0,27.0002827)" fill="rgb(255,255,255)" stroke="rgb(0,0,0)" stroke-width="0.0010cm" stroke-linecap="round" stroke-linejoin="round" shaper:cutDepth="0.008" /><path d="M20.7,12.5 a0.3,0.3 0 1,1 0.6,0 a0.3,0.3 0 1,1 -0.6,0z" transform="matrix(1,0,0,-1,0,27.0002827)" fill="rgb(255,255,255)" stroke="rgb(0,0,0)" stroke-width="0.0010cm" stroke-linecap="round" stroke-linejoin="round" shaper:cutDepth="0.008" /><path d="M21.5,6.5 L20.5,6.5 20.5,6 21.5,6 21.5,6.5z" transform="matrix(1,0,0,-1,0,27.0002827)" fill="rgb(255,255,255)" stroke="rgb(0,0,0)" stroke-width="0.0010cm" stroke-linecap="round" stroke-linejoin="round" shaper:cutDepth="0.008" /><path d="M17,6 L18,6 18,6.5 17,6.5 17,6z" transform="matrix(1,0,0,-1,0,27.0002827)" fill="rgb(255,255,255)" stroke="rgb(0,0,0)" stroke-width="0.0010cm" stroke-linecap="round" stroke-linejoin="round" shaper:cutDepth="0.008" /><path d="M24,6.5 L24,6 25,6 25,6.5 24,6.5z" transform="matrix(1,0,0,-1,0,27.0002827)" fill="rgb(255,255,255)" stroke="rgb(0,0,0)" stroke-width="0.0010cm" stroke-linecap="round" stroke-linejoin="round" shaper:cutDepth="0.008" /><path d="M16,8.5 L16,7.5 16.5,7.5 16.5,8.5 16,8.5z" transform="matrix(1,0,0,-1,0,27.0002827)" fill="rgb(255,255,255)" stroke="rgb(0,0,0)" stroke-width="0.0010cm" stroke-linecap="round" stroke-linejoin="round" shaper:cutDepth="0.008" /><path d="M16.5,13 L16.5,14 16,14 16,13 16.5,13z" transform="matrix(1,0,0,-1,0,27.0002827)" fill="rgb(255,255,255)" stroke="rgb(0,0,0)" stroke-width="0.0010cm" stroke-linecap="round" stroke-linejoin="round" shaper:cutDepth="0.008" /><path d="M16,19 L16.5,19 16.5,20 16,20 16,19z" transform="matrix(1,0,0,-1,0,27.0002827)" fill="rgb(255,255,255)" stroke="rgb(0,0,0)" stroke-width="0.0010cm" stroke-linecap="round" stroke-linejoin="round" shaper:cutDepth="0.008" /><path d="M24,21 L25,21 25,21.5 24,21.5 24,21z" transform="matrix(1,0,0,-1,0,27.0002827)" fill="rgb(255,255,255)" stroke="rgb(0,0,0)" stroke-width="0.0010cm" stroke-linecap="round" stroke-linejoin="round" shaper:cutDepth="0.008" /><path d="M21.5,21.5 L20.5,21.5 20.5,21 21.5,21 21.5,21.5z" transform="matrix(1,0,0,-1,0,27.0002827)" fill="rgb(255,255,255)" stroke="rgb(0,0,0)" stroke-width="0.0010cm" stroke-linecap="round" stroke-linejoin="round" shaper:cutDepth="0.008" /><path d="M18,21 L18,21.5 17,21.5 17,21 18,21z" transform="matrix(1,0,0,-1,0,27.0002827)" fill="rgb(255,255,255)" stroke="rgb(0,0,0)" stroke-width="0.0010cm" stroke-linecap="round" stroke-linejoin="round" shaper:cutDepth="0.008" /><path d="M26,13 L26,14 25.5,14 25.5,13 26,13z" transform="matrix(1,0,0,-1,0,27.0002827)" fill="rgb(255,255,255)" stroke="rgb(0,0,0)" stroke-width="0.0010cm" stroke-linecap="round" stroke-linejoin="round" shaper:cutDepth="0.008" /><path d="M25.5,8.5 L25.5,7.5 26,7.5 26,8.5 25.5,8.5z" transform="matrix(1,0,0,-1,0,27.0002827)" fill="rgb(255,255,255)" stroke="rgb(0,0,0)" stroke-width="0.0010cm" stroke-linecap="round" stroke-linejoin="round" shaper:cutDepth="0.008" /><path d="M26,20 L25.5,20 25.5,19 26,19 26,20z" transform="matrix(1,0,0,-1,0,27.0002827)" fill="rgb(255,255,255)" stroke="rgb(0,0,0)" stroke-width="0.0010cm" stroke-linecap="round" stroke-linejoin="round" shaper:cutDepth="0.008" /><path d="M24,20 a0.5,0.5 0 1,1 1,0 a0.5,0.5 0 1,1 -1,0z" transform="matrix(1,0,0,-1,0,27.0002827)" fill="rgb(255,255,255)" stroke="rgb(0,0,0)" stroke-width="0.0010cm" stroke-linecap="round" stroke-linejoin="round" shaper:cutDepth="0.008" /><path d="M17,20 a0.5,0.5 0 1,1 1,0 a0.5,0.5 0 1,1 -1,0z" transform="matrix(1,0,0,-1,0,27.0002827)" fill="rgb(255,255,255)" stroke="rgb(0,0,0)" stroke-width="0.0010cm" stroke-linecap="round" stroke-linejoin="round" shaper:cutDepth="0.008" /><path d="M16.75,2.2 a0.25,0.25 0 1,1 0.5,0 a0.25,0.25 0 1,1 -0.5,0z" transform="matrix(1,0,0,-1,0,27.0002827)" fill="rgb(255,255,255)" stroke="rgb(0,0,0)" stroke-width="0.0010cm" stroke-linecap="round" stroke-linejoin="round" shaper:cutDepth="0.008" /><path d="M13.2499996,11.0000001 L13.2499996,12.5000002 A0.25,0.25 0 0,1 12.7499996,12.5000002 L12.7499996,11.0000001 A0.25,0.25 180 0,1 13.2499996,11.0000001z" transform="matrix(1,0,0,-1,0,27.0002827)" fill="rgb(255,255,255)" stroke="rgb(0,0,0)" stroke-width="0.0010cm" stroke-linecap="round" stroke-linejoin="round" shaper:cutDepth="0.008" /><path d="M31.2500004,12.5000002 A0.25,0.25 0 0,1 30.7500004,12.5000002 L30.7500004,11.0003152 A0.2499998,0.2499998 179.927765 1,1 31.2499998,11 L31.2500004,12.5000002z" transform="matrix(1,0,0,-1,0,27.0002827)" fill="rgb(255,255,255)" stroke="rgb(0,0,0)" stroke-width="0.0010cm" stroke-linecap="round" stroke-linejoin="round" shaper:cutDepth="0.008" /><path d="M11.2499996,12.5000002 A0.25,0.25 0 0,1 10.7499996,12.5000002 L10.7499995,11 A0.2500005,0.2500005 180 0,1 11.2500003,10.9996848 L11.2499996,12.5000002z" transform="matrix(1,0,0,-1,0,27.0002827)" fill="rgb(255,255,255)" stroke="rgb(0,0,0)" stroke-width="0.0010cm" stroke-linecap="round" stroke-linejoin="round" shaper:cutDepth="0.008" /><path d="M28.7500004,12.5000002 L28.7500004,11.0000001 A0.25,0.25 180 0,1 29.2500004,11.0000001 L29.2500004,12.5000002 A0.25,0.25 0 0,1 28.7500004,12.5000002z" transform="matrix(1,0,0,-1,0,27.0002827)" fill="rgb(255,255,255)" stroke="rgb(0,0,0)" stroke-width="0.0010cm" stroke-linecap="round" stroke-linejoin="round" shaper:cutDepth="0.008" /><path d="M30.2500004,10.7500001 L30.2500004,12.7500002 A0.25,0.25 0 0,1 29.7500004,12.7500002 L29.7500004,10.7500001 A0.25,0.25 180 0,1 30.2500004,10.7500001z" transform="matrix(1,0,0,-1,0,27.0002827)" fill="rgb(255,255,255)" stroke="rgb(0,0,0)" stroke-width="0.0010cm" stroke-linecap="round" stroke-linejoin="round" shaper:cutDepth="0.008" /><path d="M11.7499996,12.7500002 L11.7499996,10.7500001 A0.25,0.25 180 0,1 12.2499996,10.7500001 L12.2499996,12.7500002 A0.25,0.25 0 0,1 11.7499996,12.7500002z" transform="matrix(1,0,0,-1,0,27.0002827)" fill="rgb(255,255,255)" stroke="rgb(0,0,0)" stroke-width="0.0010cm" stroke-linecap="round" stroke-linejoin="round" shaper:cutDepth="0.008" /><path d="M39.1,2 a0.4,0.4 0 1,1 0.8,0 a0.4,0.4 0 1,1 -0.8,0z" transform="matrix(1,0,0,-1,0,27.0002827)" fill="rgb(255,255,255)" stroke="rgb(0,0,0)" stroke-width="0.0010cm" stroke-linecap="round" stroke-linejoin="round" shaper:cutDepth="0.008" /><path d="M19.6250003,1.775 a0.15,0.15 0 1,1 0.3,0 a0.15,0.15 0 1,1 -0.3,0z" transform="matrix(1,0,0,-1,0,27.0002827)" fill="rgb(255,255,255)" stroke="rgb(0,0,0)" stroke-width="0.0010cm" stroke-linecap="round" stroke-linejoin="round" shaper:cutDepth="0.008" /><path d="M22.0750003,1.775 a0.15,0.15 0 1,1 0.3,0 a0.15,0.15 0 1,1 -0.3,0z" transform="matrix(1,0,0,-1,0,27.0002827)" fill="rgb(255,255,255)" stroke="rgb(0,0,0)" stroke-width="0.0010cm" stroke-linecap="round" stroke-linejoin="round" shaper:cutDepth="0.008" /><path d="M19.6250003,4.225 a0.15,0.15 0 1,1 0.3,0 a0.15,0.15 0 1,1 -0.3,0z" transform="matrix(1,0,0,-1,0,27.0002827)" fill="rgb(255,255,255)" stroke="rgb(0,0,0)" stroke-width="0.0010cm" stroke-linecap="round" stroke-linejoin="round" shaper:cutDepth="0.008" /><path d="M22.0750003,4.225 a0.15,0.15 0 1,1 0.3,0 a0.15,0.15 0 1,1 -0.3,0z" transform="matrix(1,0,0,-1,0,27.0002827)" fill="rgb(255,255,255)" stroke="rgb(0,0,0)" stroke-width="0.0010cm" stroke-linecap="round" stroke-linejoin="round" shaper:cutDepth="0.008" /><path d="M19.6,3 a1.4,1.4 0 1,1 2.8,0 a1.4,1.4 0 1,1 -2.8,0z" transform="matrix(1,0,0,-1,0,27.0002827)" fill="rgb(255,255,255)" stroke="rgb(0,0,0)" stroke-width="0.0010cm" stroke-linecap="round" stroke-linejoin="round" shaper:cutDepth="0.008" /></svg>