<?xml version="1.0" encoding="utf-8"?>
<!-- Generator: Fusion 360, Shaper Origin Export Add-In, Version 1.6.3  -->
<svg xmlns="http://www.w3.org/2000/svg" xmlns:xlink="http://www.w3.org/1999/xlink" xmlns:shaper="http://www.shapertools.com/namespaces/shaper" shaper:fusionaddin="version:1.6.3" width="10cm" height="5.8cm" version="1.1" x="0cm" y="0cm" viewBox="0 0 10 5.8" enable-background="new 0 0 10 5.8" xml:space="preserve"><path d="M-2.5,0.8999999 L-3,0.8999999 -3,0 -2,0 -2,0.5 0,0.5 0,0 4,0 4,0.5 6,0.5 6,0 7,0 7,0.9 6.5,0.9 6.5,1.9 7,1.9 7,3.4 6.5,3.4 6.5,4.4 7,4.4 7,5 6,5 6,5.8 5,5.8 5,5 2.5,5 2.5,5.8 1.5,5.8 1.5,5 -1,5 -1,5.8 -2,5.8 -2,5 -3,5 -3,4.4 -2.5,4.4 -2.5,3.4 -3,3.4 -3,1.8999999 -2.5,1.8999999 -2.5,0.8999999z" transform="matrix(1,0,0,-1,3,5.8)" fill="rgb(0,0,0)" shaper:cutDepth="0.005" stroke-linecap="round" stroke-linejoin="round" /></svg>