<?xml version="1.0" encoding="utf-8"?>
<!-- Generator: Fusion 360, Shaper Origin Export Add-In, Version 1.6.3  -->
<svg xmlns="http://www.w3.org/2000/svg" xmlns:xlink="http://www.w3.org/1999/xlink" xmlns:shaper="http://www.shapertools.com/namespaces/shaper" shaper:fusionaddin="version:1.6.3" width="15.5cm" height="5.8cm" version="1.1" x="0cm" y="0cm" viewBox="0 0 15.5 5.8" enable-background="new 0 0 15.5 5.8" xml:space="preserve"><path d="M13,4.1 L12.5,4.1 12.5,5 12,5 12,4.5 9,4.5 9,5 6,5 6,4.5 4.5,4.5 4.5,5 1.5,5 1.5,4.5 -1.5,4.5 -1.5,5 -2,5 -2,4.1 -2.5,4.1 -2.5,3.1 -2,3.1 -2,1.6 -2.5,1.6 -2.5,0.6 -2,0.6 -2,0 -1,0 -1,-0.8 0,-0.8 0,0 5,0 5,-0.8 6,-0.8 6,0 10.5,0 10.5,-0.8 11.5,-0.8 11.5,0 12.5,0 12.5,0.6 13,0.6 13,1.6 12.5,1.6 12.5,3.1 13,3.1 13,4.1z" transform="matrix(1,0,0,-1,2.5,5)" fill="rgb(0,0,0)" shaper:cutDepth="0.005" stroke-linecap="round" stroke-linejoin="round" /></svg>